<svg width="75" height="75" viewBox="0 0 75 75" fill="none" xmlns="http://www.w3.org/2000/svg">
<path d="M29.8438 47.3437L56.3282 20.8594C56.9532 20.2344 57.6824 19.9219 58.5157 19.9219C59.349 19.9219 60.0782 20.2344 60.7032 20.8594C61.3282 21.4844 61.6407 22.2271 61.6407 23.0875C61.6407 23.9479 61.3282 24.6896 60.7032 25.3125L32.0313 54.0625C31.4063 54.6875 30.6772 55 29.8438 55C29.0105 55 28.2813 54.6875 27.6563 54.0625L14.2188 40.625C13.5938 40 13.2938 39.2583 13.3188 38.4C13.3438 37.5417 13.6699 36.799 14.2969 36.1719C14.924 35.5448 15.6667 35.2323 16.5251 35.2344C17.3834 35.2365 18.1251 35.549 18.7501 36.1719L29.8438 47.3437Z" fill="#14AE5C"/>
</svg>
