<svg width="75" height="75" viewBox="0 0 75 75" fill="none" xmlns="http://www.w3.org/2000/svg">
<path d="M18.75 46.875H16.875C12.7188 46.875 9.375 43.5313 9.375 39.375V16.875C9.375 12.7188 12.7188 9.375 16.875 9.375H39.375C43.5313 9.375 46.875 12.7188 46.875 16.875V18.75M35.625 28.125H58.125C60.1141 28.125 62.0218 28.9152 63.4283 30.3217C64.8348 31.7282 65.625 33.6359 65.625 35.625V58.125C65.625 60.1141 64.8348 62.0218 63.4283 63.4283C62.0218 64.8348 60.1141 65.625 58.125 65.625H35.625C33.6359 65.625 31.7282 64.8348 30.3217 63.4283C28.9152 62.0218 28.125 60.1141 28.125 58.125V35.625C28.125 34.6401 28.319 33.6648 28.6959 32.7549C29.0728 31.8449 29.6253 31.0181 30.3217 30.3217C31.0181 29.6253 31.8449 29.0728 32.7549 28.6959C33.6648 28.319 34.6401 28.125 35.625 28.125Z" stroke="#E6EDF3" stroke-width="4.6875" stroke-miterlimit="10" stroke-linecap="round" stroke-linejoin="round"/>
</svg>
