<svg width="75" height="75" viewBox="0 0 75 75" fill="none" xmlns="http://www.w3.org/2000/svg">
<path d="M51.8438 28.125H46.875V12.5C46.875 10.7812 45.4688 9.375 43.75 9.375H31.25C29.5312 9.375 28.125 10.7812 28.125 12.5V28.125H23.1562C20.375 28.125 18.9687 31.5 20.9375 33.4688L35.2812 47.8125C36.5 49.0313 38.4687 49.0313 39.6875 47.8125L54.0313 33.4688C56 31.5 54.625 28.125 51.8438 28.125ZM15.625 59.375C15.625 61.0938 17.0312 62.5 18.75 62.5H56.25C57.9688 62.5 59.375 61.0938 59.375 59.375C59.375 57.6562 57.9688 56.25 56.25 56.25H18.75C17.0312 56.25 15.625 57.6562 15.625 59.375Z" fill="#E6EDF3"/>
</svg>
