<svg width="75" height="75" viewBox="0 0 75 75" fill="none" xmlns="http://www.w3.org/2000/svg">
<path d="M29.6875 50C24.0104 50 19.2063 48.0333 15.275 44.1C11.3438 40.1667 9.37708 35.3625 9.375 29.6875C9.37292 24.0125 11.3396 19.2083 15.275 15.275C19.2104 11.3417 24.0146 9.375 29.6875 9.375C35.3604 9.375 40.1656 11.3417 44.1031 15.275C48.0406 19.2083 50.0063 24.0125 50 29.6875C50 31.9792 49.6354 34.1406 48.9063 36.1719C48.1771 38.2031 47.1875 40 45.9375 41.5625L63.4375 59.0625C64.0104 59.6354 64.2969 60.3646 64.2969 61.25C64.2969 62.1354 64.0104 62.8646 63.4375 63.4375C62.8646 64.0104 62.1354 64.2969 61.25 64.2969C60.3646 64.2969 59.6354 64.0104 59.0625 63.4375L41.5625 45.9375C40 47.1875 38.2031 48.1771 36.1719 48.9062C34.1406 49.6354 31.9792 50 29.6875 50ZM29.6875 43.75C33.5938 43.75 36.9146 42.3833 39.65 39.65C42.3854 36.9167 43.7521 33.5958 43.75 29.6875C43.7479 25.7792 42.3813 22.4594 39.65 19.7281C36.9188 16.9969 33.5979 15.6292 29.6875 15.625C25.7771 15.6208 22.4573 16.9885 19.7281 19.7281C16.999 22.4677 15.6313 25.7875 15.625 29.6875C15.6188 33.5875 16.9865 36.9083 19.7281 39.65C22.4698 42.3917 25.7896 43.7583 29.6875 43.75Z" fill="#E6EDF3"/>
</svg>
