<svg width="75" height="75" viewBox="0 0 75 75" fill="none" xmlns="http://www.w3.org/2000/svg">
<path d="M53.125 68.75C50.5208 68.75 48.3073 67.8385 46.4844 66.0156C44.6615 64.1927 43.75 61.9792 43.75 59.375C43.75 59.0625 43.8281 58.3333 43.9844 57.1875L22.0313 44.375C21.1979 45.1562 20.2344 45.7688 19.1406 46.2125C18.0469 46.6563 16.875 46.8771 15.625 46.875C13.0208 46.875 10.8073 45.9635 8.98438 44.1406C7.16146 42.3177 6.25 40.1042 6.25 37.5C6.25 34.8958 7.16146 32.6823 8.98438 30.8594C10.8073 29.0365 13.0208 28.125 15.625 28.125C16.875 28.125 18.0469 28.3469 19.1406 28.7906C20.2344 29.2344 21.1979 29.8458 22.0313 30.625L43.9844 17.8125C43.8802 17.4479 43.8156 17.0969 43.7906 16.7594C43.7656 16.4219 43.7521 16.0438 43.75 15.625C43.75 13.0208 44.6615 10.8073 46.4844 8.98438C48.3073 7.16146 50.5208 6.25 53.125 6.25C55.7292 6.25 57.9427 7.16146 59.7656 8.98438C61.5885 10.8073 62.5 13.0208 62.5 15.625C62.5 18.2292 61.5885 20.4427 59.7656 22.2656C57.9427 24.0885 55.7292 25 53.125 25C51.875 25 50.7031 24.7781 49.6094 24.3344C48.5156 23.8906 47.5521 23.2792 46.7187 22.5L24.7656 35.3125C24.8698 35.6771 24.9354 36.0292 24.9625 36.3687C24.9896 36.7083 25.0021 37.0854 25 37.5C24.9979 37.9146 24.9854 38.2927 24.9625 38.6344C24.9396 38.976 24.874 39.3271 24.7656 39.6875L46.7187 52.5C47.5521 51.7187 48.5156 51.1073 49.6094 50.6656C50.7031 50.224 51.875 50.0021 53.125 50C55.7292 50 57.9427 50.9115 59.7656 52.7344C61.5885 54.5573 62.5 56.7708 62.5 59.375C62.5 61.9792 61.5885 64.1927 59.7656 66.0156C57.9427 67.8385 55.7292 68.75 53.125 68.75Z" fill="#E6EDF3"/>
</svg>
