<svg width="128" height="128" viewBox="0 0 128 128" fill="none" xmlns="http://www.w3.org/2000/svg">
<path d="M64.0001 24.0001C64.0001 20.4639 62.5953 17.0725 60.0948 14.572C57.5943 12.0715 54.2029 10.6667 50.6667 10.6667C47.1305 10.6667 43.7391 12.0715 41.2386 14.572C38.7382 17.0725 37.3334 20.4639 37.3334 24.0001C34.496 23.9993 31.7095 24.753 29.2594 26.184C26.8094 27.6149 24.7839 29.6717 23.3906 32.1434C21.9974 34.6151 21.2865 37.4129 21.3308 40.2499C21.3751 43.0869 22.173 45.8611 23.6427 48.2881C19.9923 48.9934 16.7013 50.9477 14.3347 53.8152C11.9682 56.6828 10.6738 60.2848 10.6738 64.0027C10.6738 67.7207 11.9682 71.3227 14.3347 74.1903C16.7013 77.0578 19.9923 79.0121 23.6427 79.7174C22.1743 82.1443 21.3775 84.9179 21.3339 87.7542C21.2903 90.5904 22.0015 93.3872 23.3946 95.8581C24.7877 98.3289 26.8126 100.385 29.2619 101.816C31.7112 103.246 34.4968 104 37.3334 104C37.3341 107.536 38.7395 110.927 41.2405 113.427C43.7415 115.927 47.1332 117.331 50.6694 117.331C54.2056 117.33 57.5967 115.925 60.0967 113.424C62.5967 110.923 64.0008 107.531 64.0001 103.995" stroke="#E6EDF3" stroke-width="8" stroke-linecap="round" stroke-linejoin="round"/>
<path d="M64 104C64 107.536 65.4048 110.928 67.9052 113.428C70.4057 115.929 73.7971 117.333 77.3333 117.333C80.8696 117.333 84.2609 115.929 86.7614 113.428C89.2619 110.928 90.6667 107.536 90.6667 104C93.5032 104 96.2888 103.246 98.7381 101.816C101.187 100.385 103.212 98.3289 104.605 95.858C105.999 93.3872 106.71 90.5903 106.666 87.7541C106.623 84.9179 105.826 82.1443 104.357 79.7174C108.008 79.012 111.299 77.0578 113.665 74.1903C116.032 71.3227 117.326 67.7207 117.326 64.0027C117.326 60.2848 116.032 56.6828 113.665 53.8152C111.299 50.9476 108.008 48.9934 104.357 48.2881C105.827 45.8611 106.625 43.0869 106.669 40.2499C106.714 37.4129 106.003 34.6151 104.609 32.1434C103.216 29.6717 101.191 27.6149 98.7406 26.1839C96.2905 24.753 93.504 23.9993 90.6667 24.0001C90.667 22.2491 90.3225 20.5152 89.6528 18.8974C88.983 17.2796 88.0012 15.8096 86.7633 14.5712C85.5254 13.3328 84.0558 12.3504 82.4382 11.68C80.8207 11.0096 79.087 10.6644 77.336 10.6641C73.7998 10.6634 70.4081 12.0674 67.9071 14.5674C65.4061 17.0674 64.0007 20.4585 64 23.9947" stroke="#E6EDF3" stroke-width="8" stroke-linecap="round" stroke-linejoin="round"/>
<path d="M55.9308 37.3388V47.8935M37.3335 56.0055H48.2775M80.1228 56.0055H91.0668M80.1228 71.8668H91.0668M37.3335 71.8668H48.2775M55.9308 80.1068V90.6668M72.0642 80.1068V90.6668M72.0162 37.3335V47.8935M53.6162 79.8348H74.7948C76.2093 79.8348 77.5659 79.2729 78.5661 78.2727C79.5663 77.2725 80.1282 75.916 80.1282 74.5015V53.2268C80.1282 51.8123 79.5663 50.4558 78.5661 49.4556C77.5659 48.4554 76.2093 47.8935 74.7948 47.8935H53.6162C52.2017 47.8935 50.8451 48.4554 49.8449 49.4556C48.8447 50.4558 48.2828 51.8123 48.2828 53.2268V74.5015C48.2828 75.916 48.8447 77.2725 49.8449 78.2727C50.8451 79.2729 52.2017 79.8348 53.6162 79.8348Z" stroke="#E6EDF3" stroke-width="8" stroke-linecap="round" stroke-linejoin="round"/>
</svg>
