<svg width="128" height="128" viewBox="0 0 128 128" fill="none" xmlns="http://www.w3.org/2000/svg">
<path d="M74.6663 66.6667C74.6663 69.4956 73.5425 72.2087 71.5421 74.2091C69.5418 76.2095 66.8287 77.3333 63.9997 77.3333C61.1707 77.3333 58.4576 76.2095 56.4572 74.2091C54.4568 72.2087 53.333 69.4956 53.333 66.6667C53.333 63.8377 54.4568 61.1246 56.4572 59.1242C58.4576 57.1238 61.1707 56 63.9997 56C66.8287 56 69.5418 57.1238 71.5421 59.1242C73.5425 61.1246 74.6663 63.8377 74.6663 66.6667Z" stroke="#E6EDF3" stroke-width="8" stroke-linecap="round" stroke-linejoin="round"/>
<path d="M63.9998 96.4693C63.3883 97.4648 62.7181 98.4639 61.9892 99.4666C54.9812 109.051 45.3118 114.688 37.3332 114.667L35.7225 103.6L24.6398 105.499C22.1545 97.9626 24.7945 86.7573 31.7972 77.1679C20.9865 73.4186 13.0238 66.1173 10.6665 58.6666L20.5865 53.7013L15.4345 43.7493C21.7652 39.0399 34.2398 38.4693 45.3812 42.1546C45.3812 29.3333 49.7918 17.9733 56.2078 13.3333L63.9998 21.3333L71.7865 13.3333C78.2078 17.9733 82.6772 29.3333 82.6132 42.1546C93.7598 38.4746 106.235 39.0399 112.565 43.7493L107.419 53.7013L117.333 58.6666C114.976 66.1119 107.013 73.4133 96.2025 77.1733C103.205 86.7573 105.845 97.9626 103.36 105.499L92.2772 103.6L90.6665 114.667C82.6878 114.688 73.0185 109.051 66.0105 99.4666C65.2983 98.4963 64.6275 97.4963 63.9998 96.4693Z" stroke="#E6EDF3" stroke-width="8" stroke-linecap="round" stroke-linejoin="round"/>
</svg>
