<svg width="75" height="75" viewBox="0 0 75 75" fill="none" xmlns="http://www.w3.org/2000/svg">
<path fill-rule="evenodd" clip-rule="evenodd" d="M18.75 74.973C19.176 74.8658 19.7332 74.3478 19.834 74.0191C21.5033 68.5881 24.3029 59.867 27.8994 50.2166C31.1074 41.6109 34.9576 32.2676 39.2139 23.8535C41.799 18.7424 44.5049 13.957 47.3414 9.9082C48.8197 7.79941 50.3004 5.89395 51.8678 4.23691C50.3912 5.86641 49.023 7.81699 47.6109 9.99023C44.9162 14.1381 42.1863 19.0723 39.6732 24.2391C35.1937 33.45 31.2598 43.3582 28.5287 50.8172C27.6782 53.131 26.8584 55.456 26.0695 57.7916C26.7557 58.0418 27.6439 59.2512 28.1584 60.2496C28.1062 59.124 27.6439 58.0348 26.7146 57.1764C30.7646 57.3439 34.6623 56.4152 36.4793 52.5768C35.3057 53.9836 34.1496 53.915 32.7598 53.915C33.8402 53.417 35.0596 52.8615 36.2719 51.7934C37.4836 50.7246 38.2816 49.5176 39.099 47.884C36.9387 49.9617 34.5275 51.2068 30.6896 50.5676C32.2002 50.3156 36.423 49.2885 40.2217 44.5693C42.8455 41.3098 44.4756 37.016 45.5707 33.5877C44.8541 33.9949 43.6289 34.326 42.6352 34.4602C45.6018 33.3 47.073 30.9498 47.8465 29.3561C46.7508 30.0604 45.8988 30.508 44.2166 30.774C45.6715 30.235 47.0771 29.1785 47.9766 27.9826C48.8953 26.7609 50.1457 23.8699 50.4615 22.1848C49.8041 22.7338 47.8465 23.3484 46.6998 23.4867C47.6344 23.0695 49.2873 22.4326 50.932 19.9916C53.4762 16.2152 55.3846 11.9355 55.9389 8.9584C56.4662 6.12656 56.066 4.03535 55.333 2.59395C54.7412 1.42734 53.2793 0 51.8678 0C50.7674 0 49.6963 0.942187 48.2666 2.3877C47.1745 3.48629 46.1473 4.64763 45.1904 5.86582C42.5994 9.12715 39.4658 13.452 36.4195 18.3375C31.5633 26.1264 26.9326 35.4457 25.0898 44.6777C24.7119 46.5691 24.4453 48.4477 24.3246 50.3191C23.7703 49.4812 22.766 48.559 21.1131 47.5758C21.7271 48.3756 24.2338 52.125 24.2338 54.7922C23.6941 54.9006 22.1373 54.7922 20.7152 54.1916C21.6076 55.0283 22.5727 55.7168 23.7029 56.0109C22.326 56.1463 20.9842 57.0035 19.5363 58.1145C21.3604 57.3955 23.0514 56.9121 24.5133 57.2086C22.6623 62.3256 19.715 71.6414 18.75 74.973Z" fill="#E6EDF3"/>
</svg>
