<svg width="128" height="128" viewBox="0 0 128 128" fill="none" xmlns="http://www.w3.org/2000/svg">
<g clip-path="url(#clip0_134_67)">
<path d="M46.6437 40.5379C51.1802 44.3659 58.501 48.3564 64.8548 50.8462C59.3893 46.8797 53.9503 42.4089 48.5213 36.5574C53.0403 26.9209 58.4362 13.6109 63.9992 0.0244141C73.0692 23.1989 89.9743 58.0749 112.621 99.4539C106.468 96.0757 100.894 94.1522 95.1383 92.6659C97.0458 93.7547 101.555 96.2152 104.448 98.1929C109.018 101.317 113.247 104.734 117.224 108.005C120.774 114.533 124.368 121.195 128 127.975C109.936 117.516 92.3818 109.043 78 106.426C82.7083 80.3087 64.28 64.8997 53.81 81.5239C49.7785 87.9247 48.6882 98.4707 50.6 106.307C32.4167 109.809 14.6257 119.61 0 127.975C17.0357 97.1062 34.2595 65.8132 46.6437 40.5379Z" fill="#E6EDF3"/>
</g>
<defs>
<clipPath id="clip0_134_67">
<rect width="128" height="128" fill="white"/>
</clipPath>
</defs>
</svg>
