<svg width="128" height="128" viewBox="0 0 128 128" fill="none" xmlns="http://www.w3.org/2000/svg">
<g clip-path="url(#clip0_134_110)">
<path d="M0 0V128H128V0H78.8C78.8 7.49867 73.2533 15.0027 64.1013 15.0027C62.1343 15.0165 60.1843 14.6367 58.3662 13.8858C56.5481 13.1348 54.8986 12.0279 53.5146 10.63C52.1306 9.23208 51.0402 7.57152 50.3075 5.74599C49.5747 3.92045 49.2145 1.96681 49.248 0L0 0ZM97.088 58.384C100.857 58.384 104.092 59.1164 106.795 60.5813C109.55 61.9893 111.915 64.4089 113.888 67.84L104.683 73.7493C103.669 71.9467 102.572 70.6525 101.392 69.8667C100.112 69.0424 98.6098 68.6292 97.088 68.6827C95.3458 68.6827 93.9662 69.1627 92.9493 70.1227C92.4543 70.5856 92.0629 71.1481 91.8009 71.7732C91.5389 72.3983 91.4123 73.0718 91.4293 73.7493C91.4293 75.5484 91.9929 76.9262 93.12 77.8827C94.304 78.7893 96.1618 79.8027 98.6933 80.9227L101.648 82.192C104.176 83.2587 106.398 84.384 108.315 85.568C110.284 86.688 111.916 87.9822 113.211 89.4507C114.556 90.8518 115.591 92.5198 116.251 94.3467C116.983 96.1458 117.349 98.2844 117.349 100.763C117.392 103.212 116.872 105.639 115.829 107.856C114.869 109.883 113.518 111.598 111.776 113.003C109.923 114.468 107.801 115.557 105.531 116.208C103.166 116.884 100.578 117.221 97.7653 117.221C95.2284 117.251 92.699 116.939 90.2453 116.293C88.1159 115.726 86.0726 114.873 84.1707 113.76C82.4228 112.726 80.8317 111.447 79.4453 109.963C78.1851 108.494 77.1071 106.879 76.2347 105.152L85.8667 99.5733C87.1573 101.653 88.6773 103.371 90.4267 104.725C92.2222 106.076 94.5867 106.752 97.52 106.752C99.9911 106.752 101.931 106.217 103.339 105.147C104.804 104.023 105.536 102.615 105.536 100.923C105.536 98.896 104.775 97.3778 103.253 96.368C101.735 95.3547 99.6249 94.256 96.9227 93.072L93.968 91.808C91.954 90.9734 90.007 89.9856 88.144 88.8533C86.4727 87.8503 84.9638 86.5986 83.6693 85.1413C82.4275 83.7242 81.4551 82.092 80.8 80.3253C80.0889 78.292 79.7458 76.1483 79.7867 73.9947C79.771 71.8833 80.1734 69.7898 80.9707 67.8347C81.7843 65.962 82.9607 64.269 84.432 62.8533C85.9538 61.4453 87.7831 60.3484 89.92 59.5627C92.0533 58.7733 94.4445 58.3787 97.0933 58.3787L97.088 58.384ZM50.176 58.5547H51.1893L77.44 116.464H65.0293L62.3307 109.963H39.0293L36.3307 116.464H24.9333L50.176 58.5547ZM50.512 79.824C50.1663 81.0691 49.8 82.3084 49.4133 83.5413L48.32 87.0027C47.972 88.0598 47.577 89.1008 47.136 90.1227L42.9973 100.085H58.112L53.9733 90.1227C53.5283 89.0064 53.1068 87.8808 52.7093 86.7467C51.9116 84.4604 51.1788 82.1519 50.512 79.824Z" fill="#E6EDF3"/>
</g>
<defs>
<clipPath id="clip0_134_110">
<rect width="128" height="128" fill="white"/>
</clipPath>
</defs>
</svg>
