<svg width="75" height="75" viewBox="0 0 75 75" fill="none" xmlns="http://www.w3.org/2000/svg">
<path fill-rule="evenodd" clip-rule="evenodd" d="M72.0471 64.125L53.2971 7.87503C52.9709 6.9048 52.3361 6.068 51.4897 5.49244C50.6433 4.91687 49.6317 4.63417 48.6096 4.68753H26.3908C25.4081 4.68499 24.4495 4.99137 23.6504 5.56335C22.8513 6.13533 22.2521 6.94399 21.9377 7.87503L2.95331 64.125C2.70712 64.8503 2.64243 65.6249 2.76488 66.381C2.88733 67.1371 3.1932 67.8517 3.65572 68.4622C4.11824 69.0727 4.72333 69.5606 5.41805 69.8832C6.11276 70.2058 6.87594 70.3532 7.64081 70.3125H21.3752C22.3499 70.3053 23.2981 69.9944 24.0878 69.4231C24.8775 68.8518 25.4695 68.0485 25.7814 67.125L28.6408 58.7813L42.7033 69.4219C43.5205 70.0137 44.5069 70.3261 45.5158 70.3125H67.4533C68.2104 70.3373 68.9623 70.1783 69.6445 69.849C70.3267 69.5197 70.919 69.03 71.3705 68.4218C71.8221 67.8135 72.1195 67.1049 72.2373 66.3566C72.3552 65.6083 72.2899 64.8426 72.0471 64.125ZM45.7033 67.2188C45.3626 67.219 45.032 67.1033 44.7658 66.8907L18.2814 47.25L17.8596 46.9219H31.9221L32.2971 45.9375L36.9846 34.0782L47.4846 65.1563C47.5689 65.4169 47.5847 65.6948 47.5304 65.9632C47.4761 66.2317 47.3535 66.4816 47.1745 66.6889C46.9955 66.8962 46.766 67.0539 46.5084 67.1467C46.2507 67.2395 45.9734 67.2643 45.7033 67.2188ZM67.5939 67.2188H50.1564C50.5065 66.2172 50.5065 65.1266 50.1564 64.125L31.1721 7.87503H48.6096C48.9406 7.8767 49.2629 7.9814 49.5317 8.17461C49.8005 8.36781 50.0025 8.63992 50.1096 8.95315L69.0939 65.2032C69.1581 65.4367 69.1682 65.6818 69.1235 65.9199C69.0787 66.1579 68.9803 66.3826 68.8357 66.5769C68.6911 66.7713 68.5041 66.93 68.2889 67.0413C68.0738 67.1525 67.8361 67.2132 67.5939 67.2188Z" fill="#E6EDF3"/>
</svg>
