<svg width="128" height="128" viewBox="0 0 128 128" fill="none" xmlns="http://www.w3.org/2000/svg">
<path d="M106.667 80.0001V40.0001L73.3335 21.2507M54.6668 21.2507L21.3335 40.0001V80.0001M29.3335 92.5014L64.0002 112L85.3335 100L98.6668 92.5014" stroke="#E6EDF3" stroke-width="10.6667" stroke-linecap="round" stroke-linejoin="round"/>
<path d="M56 50.0002L48 54.6668V73.3335L56 78.0002L64 82.6668L72 78.0002L80 73.3335V54.6668L72 50.0002L64 45.3335L56 50.0002Z" fill="#E6EDF3" stroke="#E6EDF3" stroke-width="10.6667" stroke-linecap="round" stroke-linejoin="round"/>
<path d="M64.0002 45.3334V26.6667M80.0002 72.0001L98.6668 82.6667M48.0002 72.0001L29.3335 82.6667" stroke="#E6EDF3" stroke-width="10.6667" stroke-linecap="round" stroke-linejoin="round"/>
<path d="M64 26.6667C68.4183 26.6667 72 23.085 72 18.6667C72 14.2485 68.4183 10.6667 64 10.6667C59.5817 10.6667 56 14.2485 56 18.6667C56 23.085 59.5817 26.6667 64 26.6667Z" fill="#E6EDF3" stroke="#E6EDF3" stroke-width="10.6667" stroke-linecap="round" stroke-linejoin="round"/>
<path d="M21.3335 96C25.7518 96 29.3335 92.4183 29.3335 88C29.3335 83.5817 25.7518 80 21.3335 80C16.9152 80 13.3335 83.5817 13.3335 88C13.3335 92.4183 16.9152 96 21.3335 96Z" fill="#E6EDF3" stroke="#E6EDF3" stroke-width="10.6667" stroke-linecap="round" stroke-linejoin="round"/>
<path d="M106.667 96C111.085 96 114.667 92.4183 114.667 88C114.667 83.5817 111.085 80 106.667 80C102.249 80 98.667 83.5817 98.667 88C98.667 92.4183 102.249 96 106.667 96Z" fill="#E6EDF3" stroke="#E6EDF3" stroke-width="10.6667" stroke-linecap="round" stroke-linejoin="round"/>
</svg>
