<svg width="128" height="128" viewBox="0 0 128 128" fill="none" xmlns="http://www.w3.org/2000/svg">
<path d="M63.9998 50.944L83.3854 43.2L35.3854 24L18.835 30.6176C18 30.9501 17.2158 31.3982 16.5054 31.9488L63.9998 50.944ZM13.0238 37.4592C12.8745 38.1381 12.7994 38.8312 12.7998 39.5264V88.4608C12.7995 90.3798 13.3743 92.2549 14.4501 93.844C15.5259 95.4332 17.0532 96.6634 18.835 97.376L55.6798 112.115C57.3481 112.781 59.0547 113.237 60.7998 113.485V56.5632L13.0238 37.4592ZM67.1998 113.491C68.9547 113.239 70.6734 112.779 72.3198 112.122L109.165 97.3824C110.947 96.6694 112.475 95.4382 113.551 93.8478C114.627 92.2574 115.201 90.3809 115.2 88.4608V39.5264C115.2 38.8181 115.125 38.1269 114.976 37.4528L67.1998 56.5632V113.491ZM111.494 31.9552L91.9998 39.7568L43.9998 20.5568L55.6798 15.872C61.0207 13.7354 66.9789 13.7354 72.3198 15.872L109.165 30.6112C110 30.9437 110.784 31.3918 111.494 31.9424" fill="#E6EDF3"/>
</svg>
