<svg width="128" height="128" viewBox="0 0 128 128" fill="none" xmlns="http://www.w3.org/2000/svg">
<path d="M110.187 37.3333C109.499 36.0755 108.486 35.0255 107.253 34.2933L68.1068 11.68C66.8383 11.0209 65.4297 10.6768 64.0001 10.6768C62.5706 10.6768 61.162 11.0209 59.8935 11.68L20.7468 34.2933C19.5474 35.0637 18.5491 36.1092 17.8348 37.3429C17.1206 38.5766 16.711 39.9629 16.6401 41.3867V86.6133C16.6857 88.0414 17.0892 89.4351 17.8135 90.6667C18.5012 91.9245 19.5143 92.9745 20.7468 93.7067L59.8935 116.32C61.162 116.979 62.5706 117.323 64.0001 117.323C65.4297 117.323 66.8383 116.979 68.1068 116.32L107.253 93.7067C108.486 92.9745 109.499 91.9245 110.187 90.6667C110.911 89.4351 111.315 88.0414 111.36 86.6133V41.3867C111.315 39.9586 110.911 38.5649 110.187 37.3333ZM64.0001 95.5733C58.4744 95.5486 53.0519 94.0741 48.2745 91.2972C43.4971 88.5203 39.5322 84.5382 36.776 79.7488C34.0198 74.9595 32.5688 69.5306 32.568 64.0048C32.5672 58.479 34.0166 53.0498 36.7715 48.2596C39.5264 43.4695 43.4901 39.4863 48.2667 36.708C53.0433 33.9297 58.4654 32.4536 63.9911 32.4273C69.5169 32.4011 74.9528 33.8255 79.7556 36.5582C84.5584 39.2909 88.5598 43.2363 91.3601 48L85.3335 51.7867L83.4135 52.8533L78.0801 56.1067C76.3773 52.949 73.6627 50.4553 70.3722 49.0259C67.0817 47.5965 63.4063 47.3145 59.9363 48.225C56.4662 49.1356 53.4029 51.186 51.2382 54.0469C49.0735 56.9077 47.9331 60.4131 48.0001 64C47.9903 66.7749 48.7272 69.5012 50.1335 71.8933C51.5596 74.2445 53.5677 76.1884 55.9639 77.5375C58.3601 78.8866 61.0636 79.5953 63.8135 79.5953C66.5634 79.5953 69.2668 78.8866 71.663 77.5375C74.0592 76.1884 76.0673 74.2445 77.4935 71.8933L91.3601 80C88.5526 84.7553 84.5507 88.694 79.7515 91.4258C74.9523 94.1575 69.5223 95.5873 64.0001 95.5733ZM95.5735 65.76H92.0535V69.3333H88.5868V65.8133H85.3335V62.2933H88.8535V58.6667H92.3201V62.1867H95.8401L95.5735 65.76ZM108.747 65.76H105.227V69.3333H101.707V65.8133H98.2401V62.2933H101.707V58.6667H105.227V62.1867H108.747V65.76Z" fill="#E6EDF3"/>
</svg>
