<svg width="128" height="128" viewBox="0 0 128 128" fill="none" xmlns="http://www.w3.org/2000/svg">
<path d="M47.9999 106.667C47.9999 109.496 46.8761 112.209 44.8757 114.209C42.8753 116.209 40.1622 117.333 37.3333 117.333H15.9999C14.5854 117.333 13.2289 116.771 12.2287 115.771C11.2285 114.771 10.6666 113.414 10.6666 112C10.6666 110.585 11.2285 109.229 12.2287 108.229C13.2289 107.229 14.5854 106.667 15.9999 106.667H37.3333V90.6826L35.5039 90.688C35.2954 90.6877 35.087 90.6753 34.8799 90.6506L34.3199 90.6453C18.6399 90.0586 5.96259 77.8506 5.35992 62.576L5.33325 61.424C5.33325 46.7733 16.4266 34.704 30.8479 32.5333L31.4559 32.448L31.8293 31.4826C35.3653 22.8426 42.7946 15.984 52.2506 12.72L53.5519 12.2933C65.2533 8.73596 78.1599 11.0986 87.4719 18.5653C94.8586 24.4746 99.1359 32.8906 99.4719 41.712L99.4933 42.8426L99.9786 42.8586C112.245 43.4293 122.075 53.3173 122.645 65.632L122.667 66.7573C122.667 79.9733 112.016 90.688 98.8533 90.688H90.6666V106.667H112C113.414 106.667 114.771 107.229 115.771 108.229C116.771 109.229 117.333 110.585 117.333 112C117.333 113.414 116.771 114.771 115.771 115.771C114.771 116.771 113.414 117.333 112 117.333H90.6666C87.8376 117.333 85.1245 116.209 83.1241 114.209C81.1237 112.209 79.9999 109.496 79.9999 106.667V90.6826H69.3333V112C69.3333 113.414 68.7714 114.771 67.7712 115.771C66.771 116.771 65.4144 117.333 63.9999 117.333C62.5854 117.333 61.2289 116.771 60.2287 115.771C59.2285 114.771 58.6666 113.414 58.6666 112V90.6826H47.9999V106.667Z" fill="#E6EDF3"/>
</svg>
