<svg width="128" height="128" viewBox="0 0 128 128" fill="none" xmlns="http://www.w3.org/2000/svg">
<path d="M25.7332 64.1333L46.3999 84.8C47.3777 85.7777 47.8666 87.0222 47.8666 88.5333C47.8666 90.0444 47.3777 91.2889 46.3999 92.2666C45.4221 93.2444 44.1777 93.7333 42.6666 93.7333C41.1554 93.7333 39.911 93.2444 38.9332 92.2666L14.3999 67.7333C13.8666 67.2 13.4879 66.6222 13.2639 66C13.0399 65.3777 12.9314 64.7111 12.9386 64C12.9457 63.2889 13.0577 62.6222 13.2746 62C13.4914 61.3777 13.8683 60.8 14.4052 60.2666L38.9386 35.7333C40.0052 34.6666 41.2728 34.1333 42.7412 34.1333C44.2097 34.1333 45.4754 34.6666 46.5386 35.7333C47.6017 36.8 48.135 38.0675 48.1386 39.536C48.1421 41.0044 47.6088 42.2702 46.5386 43.3333L25.7332 64.1333ZM102.267 63.8666L81.5999 43.2C80.6221 42.2222 80.1332 40.9777 80.1332 39.4666C80.1332 37.9555 80.6221 36.7111 81.5999 35.7333C82.5777 34.7555 83.8221 34.2666 85.3332 34.2666C86.8443 34.2666 88.0888 34.7555 89.0666 35.7333L113.6 60.2666C114.133 60.8 114.512 61.3777 114.736 62C114.96 62.6222 115.07 63.2889 115.067 64C115.063 64.7111 114.953 65.3777 114.736 66C114.519 66.6222 114.14 67.2 113.6 67.7333L89.0666 92.2666C87.9999 93.3333 86.7554 93.8453 85.3332 93.8026C83.911 93.76 82.6666 93.2035 81.5999 92.1333C80.5332 91.0631 79.9999 89.7973 79.9999 88.336C79.9999 86.8746 80.5332 85.6071 81.5999 84.5333L102.267 63.8666Z" fill="#E6EDF3"/>
</svg>
