<svg width="128" height="128" viewBox="0 0 128 128" fill="none" xmlns="http://www.w3.org/2000/svg">
<rect width="128" height="128" fill="#1E1E1E"/>
<path d="M64 12C64 10.9391 64.4215 9.92172 65.1716 9.17157C65.9217 8.42143 66.9392 8 68 8C74.8288 8 81.5906 9.34502 87.8996 11.9583C94.2085 14.5715 99.9409 18.4018 104.77 23.2304C109.598 28.0591 113.429 33.7915 116.042 40.1005C118.655 46.4094 120 53.1713 120 60C120 61.0609 119.579 62.0783 118.828 62.8284C118.078 63.5786 117.061 64 116 64H68C66.9392 64 65.9217 63.5786 65.1716 62.8284C64.4215 62.0783 64 61.0609 64 60V12ZM56 28.176C56.0001 27.6203 55.8843 27.0708 55.6602 26.5623C55.4361 26.0539 55.1085 25.5977 54.6983 25.2229C54.2881 24.8481 53.8043 24.5628 53.2777 24.3853C52.7512 24.2078 52.1934 24.142 51.64 24.192C42.5556 25.0203 33.8953 28.42 26.6734 33.993C19.4516 39.5661 13.9674 47.0816 10.8631 55.6592C7.75885 64.2369 7.16308 73.5216 9.14561 82.4257C11.1281 91.3297 15.6069 99.4846 22.0572 105.935C28.5075 112.385 36.6623 116.864 45.5664 118.846C54.4704 120.829 63.7551 120.233 72.3328 117.129C80.9105 114.025 88.426 108.54 93.999 101.319C99.572 94.0968 102.972 85.4364 103.8 76.352C103.849 75.7999 103.782 75.2437 103.605 74.7187C103.427 74.1936 103.143 73.7112 102.769 73.302C102.395 72.8928 101.94 72.5658 101.433 72.3417C100.926 72.1175 100.378 72.0012 99.824 72H56V28.176Z" fill="#E6EDF3"/>
</svg>
