<svg width="128" height="128" viewBox="0 0 128 128" fill="none" xmlns="http://www.w3.org/2000/svg">
<path d="M106.667 95.9998C106.667 107.786 87.5626 117.333 63.9999 117.333C40.4373 117.333 21.3333 107.786 21.3333 95.9998V74.5278C24.0106 77.8185 27.8133 80.5492 32.0426 82.6612C40.4266 86.8532 51.7333 89.3332 63.9999 89.3332C76.2666 89.3332 87.5733 86.8532 95.9573 82.6665C100.187 80.5492 103.989 77.8132 106.667 74.5278V95.9998Z" fill="#E6EDF3"/>
<path d="M63.9999 57.3332C76.2666 57.3332 87.5733 54.8532 95.9573 50.6665C100.187 48.5492 103.989 45.8132 106.667 42.5278V63.9998C106.667 66.6665 97.1413 72.4852 92.3786 75.5092C85.3226 79.0345 75.2959 81.3332 63.9999 81.3332C52.7039 81.3332 42.6773 79.0398 35.6213 75.5092C29.3333 72.3625 21.3333 66.6665 21.3333 63.9998V42.5278C24.0106 45.8185 27.8133 48.5492 32.0426 50.6612C40.4266 54.8532 51.7333 57.3332 63.9999 57.3332Z" fill="#E6EDF3"/>
<path d="M92.3787 43.5092C85.3227 47.0345 75.2961 49.3332 64.0001 49.3332C52.7041 49.3332 42.6774 47.0398 35.6214 43.5092C32.8747 42.4318 26.6987 39.0132 22.4107 33.4878C22.0459 33.0253 21.7808 32.4923 21.6321 31.9223C21.4834 31.3523 21.4543 30.7576 21.5467 30.1758C21.6694 29.3865 21.8401 28.5705 22.0587 28.0638C25.7494 18.1652 43.1254 10.6665 64.0001 10.6665C84.8747 10.6665 102.251 18.1652 105.941 28.0638C106.16 28.5705 106.331 29.3865 106.453 30.1758C106.546 30.7576 106.517 31.3523 106.368 31.9223C106.219 32.4923 105.954 33.0253 105.589 33.4878C101.301 39.0132 95.1254 42.4318 92.3787 43.5092Z" fill="#E6EDF3"/>
</svg>
