<svg width="75" height="75" viewBox="0 0 75 75" fill="none" xmlns="http://www.w3.org/2000/svg">
<path d="M68.1562 32.0312C67.9688 31.9062 66.4062 30.6875 63.0312 30.6875C62.1562 30.6875 61.2812 30.7812 60.4062 30.9375C59.75 26.5625 56.0938 24.3438 55.9375 24.25L55.0312 23.7188L54.4688 24.5625C53.7188 25.6875 53.125 26.9688 52.875 28.2813C52.25 30.7813 52.625 33.1563 53.9062 35.1875C52.375 36.0625 49.875 36.2812 49.3438 36.2812H8.1875C7.125 36.2812 6.25 37.1562 6.25 38.25C6.25 41.8438 6.8125 45.4375 8.0625 48.8125C9.46875 52.5312 11.5937 55.2812 14.3125 56.9688C17.375 58.8438 22.4062 59.9062 28.125 59.9062C30.5938 59.9062 33.1562 59.6875 35.6875 59.2188C39.1875 58.5938 42.5625 57.375 45.6562 55.5938C48.2185 54.1286 50.5118 52.2368 52.4375 50C55.7188 46.3438 57.6562 42.1875 59.0625 38.5938H59.6562C63.2188 38.5938 65.4375 37.1562 66.6562 35.9375C67.4688 35.1875 68.0625 34.2812 68.5 33.2188L68.75 32.4688L68.1562 32.0312ZM12.0312 35.125H17.5312C17.7812 35.125 18.0312 34.9062 18.0312 34.625V29.6875C18.0312 29.4375 17.8125 29.1875 17.5312 29.1875H12.0312C11.75 29.1875 11.5312 29.4062 11.5312 29.6875V34.625C11.5625 34.9062 11.75 35.125 12.0312 35.125ZM19.625 35.125H25.125C25.375 35.125 25.625 34.9062 25.625 34.625V29.6875C25.625 29.4375 25.4062 29.1875 25.125 29.1875H19.625C19.3438 29.1875 19.125 29.4062 19.125 29.6875V34.625C19.1562 34.9062 19.3438 35.125 19.625 35.125ZM27.3438 35.125H32.8125C33.125 35.125 33.3438 34.9062 33.3438 34.625V29.6875C33.3438 29.4375 33.1562 29.1875 32.8125 29.1875H27.3438C27.0938 29.1875 26.875 29.4062 26.875 29.6875V34.625C26.875 34.9062 27.0625 35.125 27.3438 35.125ZM34.9687 35.125H40.5C40.75 35.125 40.9688 34.9062 40.9688 34.625V29.6875C40.9688 29.4375 40.7812 29.1875 40.5 29.1875H34.9687C34.7187 29.1875 34.5 29.4062 34.5 29.6875V34.625C34.5 34.9062 34.7187 35.125 34.9687 35.125ZM19.625 28.125H25.125C25.375 28.125 25.625 27.8437 25.625 27.5625V22.6562C25.625 22.375 25.4062 22.1563 25.125 22.1563H19.625C19.3438 22.1563 19.125 22.3438 19.125 22.6562V27.5625C19.1562 27.8437 19.3438 28.125 19.625 28.125ZM27.3438 28.125H32.8125C33.125 28.125 33.3438 27.8437 33.3438 27.5625V22.6562C33.3438 22.375 33.1562 22.1563 32.8125 22.1563H27.3438C27.0938 22.1563 26.875 22.3438 26.875 22.6562V27.5625C26.875 27.8437 27.0625 28.125 27.3438 28.125ZM34.9687 28.125H40.5C40.75 28.125 40.9688 27.8437 40.9688 27.5625V22.6562C40.9688 22.375 40.75 22.1563 40.5 22.1563H34.9687C34.7187 22.1563 34.5 22.3438 34.5 22.6562V27.5625C34.5 27.8437 34.7187 28.125 34.9687 28.125ZM34.9687 21H40.5C40.75 21 40.9688 20.7812 40.9688 20.5V15.625C40.9688 15.3125 40.75 15.0938 40.5 15.0938H34.9687C34.7187 15.0938 34.5 15.2813 34.5 15.625V20.5C34.5 20.75 34.7187 21 34.9687 21ZM42.6562 35.125H48.1562C48.4375 35.125 48.6562 34.9062 48.6562 34.625V29.6875C48.6562 29.4375 48.4375 29.1875 48.1562 29.1875H42.6562C42.4062 29.1875 42.1875 29.4062 42.1875 29.6875V34.625C42.1875 34.9062 42.4062 35.125 42.6562 35.125Z" fill="#E6EDF3"/>
</svg>
