<svg width="75" height="75" viewBox="0 0 75 75" fill="none" xmlns="http://www.w3.org/2000/svg">
<path d="M75 27.4062H67.2875V51.0468H62.8344V27.4062H55.1406V23.5312H75V27.4062ZM53.5875 51.0468H38.5219V23.5312H52.9906V27.4062H42.975V35.2H52.2031V39.0562H42.975V47.1937H53.5875V51.0468ZM32.625 51.0468H27.7563L14.9375 30.8218C14.6186 30.3174 14.3487 29.7838 14.1313 29.2281H14.0188C14.1188 29.8177 14.1688 31.0781 14.1688 33.0093V51.0468H9.86563V23.5312H15.05L27.4406 43.2812C27.9615 44.0979 28.2979 44.6604 28.45 44.9687H28.525C28.4 44.2395 28.3375 43.0052 28.3375 41.2656V23.5281H32.625V51.0468ZM5.42813 48.8812C5.42813 49.2217 5.35786 49.5588 5.22135 49.8733C5.08484 50.1878 4.88476 50.4735 4.63255 50.7141C4.38034 50.9547 4.08095 51.1455 3.75149 51.2755C3.42203 51.4055 3.06898 51.4722 2.7125 51.4718C2.35602 51.4718 2.00303 51.4047 1.67372 51.2743C1.34441 51.1439 1.04524 50.9528 0.793317 50.7119C0.541395 50.4711 0.341662 50.1851 0.205539 49.8704C0.0694155 49.5558 -0.000428046 49.2185 1.97365e-06 48.8781C0.000869082 48.1915 0.287032 47.5334 0.795631 47.0483C1.30423 46.5631 1.99367 46.2906 2.7125 46.2906C3.06898 46.2902 3.42203 46.3569 3.75149 46.4869C4.08095 46.6169 4.38034 46.8077 4.63255 47.0483C4.88476 47.2889 5.08484 47.5746 5.22135 47.8891C5.35786 48.2036 5.42813 48.5407 5.42813 48.8812Z" fill="#E6EDF3"/>
</svg>
