<svg width="128" height="128" viewBox="0 0 128 128" fill="none" xmlns="http://www.w3.org/2000/svg">
<path d="M46.9333 112H26.6667C23.7333 112 21.2231 110.956 19.136 108.869C17.0489 106.782 16.0036 104.27 16 101.333V81.0667C20.2667 81.0667 24 79.712 27.2 77.0027C30.4 74.2933 32 70.848 32 66.6667C32 62.4853 30.4 59.0418 27.2 56.336C24 53.6302 20.2667 52.2738 16 52.2667V32C16 29.0667 17.0453 26.5564 19.136 24.4693C21.2267 22.3822 23.7369 21.3369 26.6667 21.3333H48C48 17.6 49.2889 14.4444 51.8667 11.8667C54.4444 9.28889 57.6 8 61.3333 8C65.0667 8 68.2222 9.28889 70.8 11.8667C73.3778 14.4444 74.6667 17.6 74.6667 21.3333H96C98.9333 21.3333 101.445 22.3787 103.536 24.4693C105.627 26.56 106.67 29.0702 106.667 32V53.3333C110.4 53.3333 113.556 54.6222 116.133 57.2C118.711 59.7778 120 62.9333 120 66.6667C120 70.4 118.711 73.5556 116.133 76.1333C113.556 78.7111 110.4 80 106.667 80V101.333C106.667 104.267 105.623 106.779 103.536 108.869C101.449 110.96 98.9369 112.004 96 112H75.7333C75.7333 107.556 74.3342 103.778 71.536 100.667C68.7378 97.5556 65.3369 96 61.3333 96C57.3298 96 53.9307 97.5556 51.136 100.667C48.3413 103.778 46.9404 107.556 46.9333 112Z" fill="#E6EDF3"/>
</svg>
