<svg width="112" height="128" viewBox="0 0 112 128" fill="none" xmlns="http://www.w3.org/2000/svg">
<g clip-path="url(#clip0_143_2)">
<path d="M110.427 16.3732C110.052 15.9795 109.601 15.6663 109.101 15.4526C108.602 15.2389 108.063 15.1294 107.52 15.1306H107.488C106.155 15.4079 104.955 15.8755 103.888 16.5332L103.936 16.5066C102.13 17.4168 100.217 18.4372 98.1973 19.5679C96.0024 20.7749 93.6989 21.7731 91.3173 22.5493L91.0239 22.6346C88.5629 23.5068 85.976 23.9716 83.3653 24.0106H83.3439L83.0773 24.0159C81.0879 24.0159 79.2053 23.5573 77.5306 22.7359L77.6053 22.7679C73.2485 20.631 68.7509 18.7938 64.1439 17.2692L63.3226 17.0292C59.2026 15.7591 54.9139 15.1207 50.6026 15.1359H50.2559H50.2719C40.5178 15.5712 31.0052 18.3089 22.5119 23.1252L22.8159 22.9653C20.6826 24.0213 19.1786 24.8373 18.1973 25.4399L17.2213 18.2879C18.881 16.8497 20.0439 14.924 20.5441 12.7856C21.0443 10.6471 20.8561 8.40537 20.0065 6.38025C19.1569 4.35513 17.6892 2.65018 15.8129 1.50879C13.9367 0.367394 11.7479 -0.152098 9.55882 0.0244667C7.3698 0.201032 5.2925 1.06463 3.62346 2.49198C1.95443 3.91933 0.778971 5.83747 0.264889 7.97259C-0.249192 10.1077 -0.075619 12.3507 0.760831 14.3813C1.59728 16.4119 3.05385 18.1263 4.92261 19.2799L4.96528 19.3066L19.0453 122.693C19.4666 125.707 22.0266 128 25.1199 128.005C25.4186 128.005 25.7173 127.986 26.0053 127.947L25.9733 127.952C26.7779 127.846 27.5537 127.583 28.2559 127.176C28.9581 126.769 29.5728 126.227 30.0646 125.582C30.5564 124.936 30.9156 124.2 31.1214 123.415C31.3273 122.63 31.3757 121.812 31.2639 121.008L31.2693 121.04L25.6053 79.4879C33.7384 74.9518 42.7976 72.3272 52.0959 71.8132L52.2613 71.8079H52.3093C55.6106 71.8079 58.7946 72.3306 61.7706 73.3013L61.5519 73.2426C64.2395 74.0454 66.8351 75.1287 69.2959 76.4746L69.0879 76.3679C71.0826 77.4933 73.4186 78.5492 75.8506 79.4026L76.1599 79.4986C78.5546 80.3946 81.3226 80.9172 84.2079 80.9386H84.2186C92.8215 80.3943 101.16 77.7521 108.507 73.2426L108.277 73.3759C109.259 72.8959 110.112 72.2968 110.837 71.5786C111.426 70.8754 111.717 69.9703 111.648 69.0559V69.0666V19.2799C111.65 18.7394 111.542 18.204 111.331 17.7063C111.12 17.2085 110.811 16.7587 110.421 16.3839L110.427 16.3732Z" fill="#E6EDF3"/>
</g>
<defs>
<clipPath id="clip0_143_2">
<rect width="112" height="128" fill="white"/>
</clipPath>
</defs>
</svg>
