<svg width="128" height="128" viewBox="0 0 128 128" fill="none" xmlns="http://www.w3.org/2000/svg">
<path d="M120.782 61.3448C115.48 37.3723 107.5 24.5773 95.6624 21.0823C93.1742 20.3523 90.5931 19.9877 87.9999 19.9998C84.5724 19.9998 81.5874 20.8348 78.4299 21.7198C74.6249 22.7873 70.3024 23.9998 63.9999 23.9998C57.6974 23.9998 53.3724 22.7898 49.5599 21.7223C46.3999 20.8348 43.4174 19.9998 39.9999 19.9998C37.3185 19.9904 34.6488 20.3539 32.0674 21.0798C20.2924 24.5598 12.3174 37.3498 6.93744 61.3298C1.15244 87.1348 3.99994 103.427 14.9224 107.207C16.4196 107.735 17.995 108.007 19.5824 108.012C27.0649 108.012 33.0649 101.78 37.1649 96.6773C41.7974 90.9023 47.2199 87.9723 63.9999 87.9723C78.9874 87.9723 85.1899 90.0048 90.5474 96.6773C93.9149 100.872 97.0974 103.807 100.272 105.655C104.495 108.11 108.715 108.655 112.812 107.247C119.267 105.045 122.967 99.2223 123.812 89.9373C124.455 82.8173 123.465 73.4648 120.782 61.3448ZM51.9999 59.9998H43.9999V67.9998C43.9999 69.0607 43.5785 70.0781 42.8284 70.8282C42.0782 71.5784 41.0608 71.9998 39.9999 71.9998C38.9391 71.9998 37.9217 71.5784 37.1715 70.8282C36.4214 70.0781 35.9999 69.0607 35.9999 67.9998V59.9998H27.9999C26.9391 59.9998 25.9217 59.5784 25.1715 58.8282C24.4214 58.0781 23.9999 57.0607 23.9999 55.9998C23.9999 54.9389 24.4214 53.9215 25.1715 53.1714C25.9217 52.4212 26.9391 51.9998 27.9999 51.9998H35.9999V43.9998C35.9999 42.9389 36.4214 41.9215 37.1715 41.1714C37.9217 40.4212 38.9391 39.9998 39.9999 39.9998C41.0608 39.9998 42.0782 40.4212 42.8284 41.1714C43.5785 41.9215 43.9999 42.9389 43.9999 43.9998V51.9998H51.9999C53.0608 51.9998 54.0782 52.4212 54.8284 53.1714C55.5785 53.9215 55.9999 54.9389 55.9999 55.9998C55.9999 57.0607 55.5785 58.0781 54.8284 58.8282C54.0782 59.5784 53.0608 59.9998 51.9999 59.9998ZM72.9999 60.9998C72.011 60.9998 71.0443 60.7066 70.2221 60.1572C69.3998 59.6077 68.759 58.8269 68.3805 57.9132C68.0021 56.9996 67.9031 55.9943 68.096 55.0244C68.2889 54.0544 68.7651 53.1635 69.4644 52.4643C70.1637 51.765 71.0546 51.2888 72.0245 51.0959C72.9944 50.903 73.9997 51.002 74.9134 51.3804C75.827 51.7588 76.6079 52.3997 77.1573 53.222C77.7067 54.0442 77.9999 55.0109 77.9999 55.9998C77.9999 57.3259 77.4732 58.5977 76.5355 59.5353C75.5978 60.473 74.326 60.9998 72.9999 60.9998ZM83.9999 71.9998C83.0105 71.9998 82.0433 71.7062 81.2208 71.1563C80.3983 70.6063 79.7574 69.8247 79.3794 68.9103C79.0013 67.996 78.903 66.99 79.097 66.0197C79.2909 65.0495 79.7683 64.1586 80.4689 63.4599C81.1694 62.7611 82.0615 62.2859 83.0322 62.0944C84.0029 61.9028 85.0086 62.0037 85.922 62.384C86.8354 62.7644 87.6155 63.4072 88.1634 64.2311C88.7113 65.0549 89.0024 66.0229 88.9999 67.0123C88.9966 68.3362 88.4684 69.6048 87.5311 70.5398C86.5937 71.4747 85.3239 71.9998 83.9999 71.9998ZM83.9999 49.9998C83.011 49.9998 82.0443 49.7066 81.2221 49.1572C80.3998 48.6077 79.759 47.8269 79.3805 46.9132C79.0021 45.9996 78.9031 44.9943 79.096 44.0244C79.2889 43.0544 79.7651 42.1635 80.4644 41.4643C81.1637 40.765 82.0546 40.2888 83.0245 40.0959C83.9944 39.903 84.9997 40.002 85.9134 40.3804C86.827 40.7588 87.6079 41.3997 88.1573 42.222C88.7067 43.0442 88.9999 44.0109 88.9999 44.9998C88.9999 46.3259 88.4732 47.5977 87.5355 48.5353C86.5978 49.473 85.326 49.9998 83.9999 49.9998ZM94.9999 60.9998C94.011 60.9998 93.0443 60.7066 92.2221 60.1572C91.3998 59.6077 90.759 58.8269 90.3805 57.9132C90.0021 56.9996 89.9031 55.9943 90.096 55.0244C90.2889 54.0544 90.7651 53.1635 91.4644 52.4643C92.1637 51.765 93.0546 51.2888 94.0245 51.0959C94.9944 50.903 95.9997 51.002 96.9134 51.3804C97.827 51.7588 98.6079 52.3997 99.1573 53.222C99.7067 54.0442 99.9999 55.0109 99.9999 55.9998C99.9999 57.3259 99.4732 58.5977 98.5355 59.5353C97.5978 60.473 96.326 60.9998 94.9999 60.9998Z" fill="#E6EDF3"/>
</svg>
