<svg width="128" height="128" viewBox="0 0 128 128" fill="none" xmlns="http://www.w3.org/2000/svg">
<path d="M63.9998 10.6667C56.996 10.6667 50.0608 12.0463 43.5901 14.7265C37.1194 17.4068 31.2399 21.3353 26.2875 26.2877C16.2855 36.2897 10.6665 49.8552 10.6665 64.0001C10.6665 87.5734 25.9732 107.573 47.1465 114.667C49.8132 115.093 50.6665 113.44 50.6665 112V102.987C35.8932 106.187 32.7465 95.8401 32.7465 95.8401C30.2932 89.6534 26.8265 88.0001 26.8265 88.0001C21.9732 84.6934 27.1998 84.8001 27.1998 84.8001C32.5332 85.1734 35.3598 90.2934 35.3598 90.2934C39.9998 98.4001 47.8398 96.0001 50.8798 94.7201C51.3598 91.2534 52.7465 88.9068 54.2398 87.5734C42.3998 86.2401 29.9732 81.6534 29.9732 61.3334C29.9732 55.4134 31.9998 50.6667 35.4665 46.8801C34.9332 45.5467 33.0665 40.0001 35.9998 32.8001C35.9998 32.8001 40.4798 31.3601 50.6665 38.2401C54.8798 37.0667 59.4665 36.4801 63.9998 36.4801C68.5332 36.4801 73.1198 37.0667 77.3332 38.2401C87.5198 31.3601 91.9998 32.8001 91.9998 32.8001C94.9332 40.0001 93.0665 45.5467 92.5332 46.8801C95.9998 50.6667 98.0265 55.4134 98.0265 61.3334C98.0265 81.7067 85.5465 86.1867 73.6532 87.5201C75.5732 89.1734 77.3332 92.4268 77.3332 97.3868V112C77.3332 113.44 78.1865 115.147 80.9065 114.667C102.08 107.52 117.333 87.5734 117.333 64.0001C117.333 56.9962 115.954 50.061 113.273 43.5903C110.593 37.1196 106.665 31.2402 101.712 26.2877C96.7597 21.3353 90.8803 17.4068 84.4096 14.7265C77.9389 12.0463 71.0037 10.6667 63.9998 10.6667Z" fill="#E6EDF3"/>
</svg>
