<svg width="75" height="75" viewBox="0 0 75 75" fill="none" xmlns="http://www.w3.org/2000/svg">
<path d="M30.5877 5.63081C27.4822 6.32222 24.4102 7.28081 21.5309 8.73159C21.5971 11.2746 21.7623 13.7097 22.0939 16.1847C20.9771 16.9007 19.8006 17.5166 18.757 18.3539C17.6947 19.1712 16.6125 19.9517 15.651 20.9085C13.7065 19.6189 11.6882 18.4442 9.60645 17.3906C7.34941 19.8187 5.23828 22.4396 3.51562 25.374C4.8709 27.5003 6.32402 29.6355 7.66758 31.3019V49.3037C7.70156 49.3037 7.73437 49.305 7.76602 49.3078L18.8027 50.373C19.0822 50.4002 19.3431 50.5255 19.5391 50.7265C19.7351 50.9276 19.8537 51.1915 19.8738 51.4716L20.2148 56.3443L29.8395 57.031L30.5033 52.5357C30.5449 52.2535 30.6866 51.9956 30.9024 51.8091C31.1183 51.6226 31.394 51.5199 31.6793 51.5197H43.3207C43.606 51.5199 43.8817 51.6226 44.0976 51.8091C44.3134 51.9956 44.4551 52.2535 44.4967 52.5357L45.1605 57.031L54.7875 56.3443L55.1262 51.4716C55.1463 51.1915 55.2649 50.9276 55.4609 50.7265C55.6569 50.5255 55.9178 50.4002 56.1973 50.373L67.2293 49.3083C67.2613 49.3056 67.2941 49.3042 67.3277 49.3042V47.8652H67.3324V31.3007C68.8863 29.3466 70.3559 27.188 71.4844 25.3734C69.7611 22.439 67.6506 19.8187 65.3936 17.39C63.3118 18.4437 61.2935 19.6183 59.349 20.908C58.3881 19.9511 57.3053 19.1707 56.2436 18.3533C55.1994 17.5154 54.0229 16.9001 52.9061 16.1835C53.2377 13.7091 53.4029 11.274 53.4686 8.73101C50.5898 7.28022 47.5184 6.32104 44.4123 5.62964C43.1719 7.71499 42.0363 9.97144 41.0502 12.1781C39.8783 11.9835 38.7018 11.9103 37.5229 11.8968V11.8945L37.5 11.8968C37.4906 11.898 37.4865 11.8945 37.4766 11.8945V11.8968C36.2988 11.9103 35.1217 11.9835 33.9498 12.1781C32.9637 9.97202 31.8287 7.71499 30.5877 5.62964V5.63081ZM21.8561 31.9628C25.5299 31.9628 28.507 34.9388 28.507 38.6103C28.507 42.2841 25.5293 45.2613 21.8561 45.2613C18.1846 45.2613 15.2068 42.2835 15.2068 38.6103C15.2068 34.9388 18.1846 31.9628 21.8561 31.9628ZM53.1439 31.9628C56.8154 31.9628 59.7932 34.9388 59.7932 38.6103C59.7932 42.2841 56.8154 45.2613 53.1439 45.2613C49.4701 45.2613 46.493 42.2835 46.493 38.6103C46.493 34.9388 49.4707 31.9628 53.1439 31.9628ZM37.5 35.8529C38.6813 35.8529 39.6422 36.7248 39.6422 37.7982V43.9207C39.6422 44.9941 38.6813 45.866 37.5 45.866C36.3164 45.866 35.3602 44.9941 35.3602 43.9207V37.7976C35.3602 36.7248 36.3164 35.8529 37.5 35.8529Z" fill="#E6EDF3"/>
<path d="M57.4266 52.6406L57.0855 57.5391C57.0656 57.8245 56.9431 58.0931 56.7406 58.2953C56.5382 58.4976 56.2695 58.6198 55.984 58.6395L44.2289 59.4797C44.202 59.482 44.1721 59.482 44.1445 59.482C43.5609 59.482 43.0547 59.0543 42.9703 58.4684L42.2953 53.8945H32.7047L32.0297 58.4678C31.9862 58.7641 31.8324 59.0331 31.599 59.2207C31.3656 59.4084 31.0698 59.5009 30.7711 59.4797L19.0154 58.6395C18.73 58.6196 18.4613 58.4973 18.259 58.2949C18.0566 58.0926 17.9343 57.8239 17.9145 57.5385L17.5734 52.64L7.64941 51.6838C7.6541 52.7502 7.66699 53.9197 7.66699 54.1512C7.66699 64.6318 20.9631 69.6691 37.4795 69.7266H37.5205C54.0369 69.6691 67.3277 64.6318 67.3277 54.1512C67.3277 53.9156 67.3418 52.7508 67.3459 51.6838L57.4266 52.6406ZM26.9074 39.0035C26.9076 39.5833 26.7935 40.1574 26.5716 40.693C26.3498 41.2286 26.0246 41.7153 25.6145 42.1251C25.2045 42.535 24.7177 42.86 24.182 43.0817C23.6463 43.3033 23.0721 43.4172 22.4924 43.4168C21.3217 43.417 20.1989 42.9521 19.3709 42.1245C18.543 41.2968 18.0777 40.1742 18.0773 39.0035C18.078 37.833 18.5434 36.7107 19.3713 35.8833C20.1993 35.056 21.3219 34.5913 22.4924 34.5914C23.072 34.591 23.6461 34.7049 24.1817 34.9264C24.7174 35.148 25.2041 35.4729 25.6141 35.8826C26.0241 36.2924 26.3494 36.7789 26.5713 37.3144C26.7932 37.8499 26.9074 38.4239 26.9074 39.0035ZM48.0926 39.0035C48.0924 39.5831 48.2065 40.157 48.4282 40.6925C48.6498 41.2279 48.9749 41.7145 49.3846 42.1243C49.7944 42.5341 50.2809 42.8592 50.8164 43.081C51.3518 43.3028 51.9257 43.4169 52.5053 43.4168C53.6757 43.4168 54.7981 42.9519 55.6257 42.1243C56.4533 41.2967 56.9183 40.1742 56.9183 39.0038C56.9183 37.8334 56.4533 36.711 55.6257 35.8834C54.7981 35.0558 53.6757 34.5908 52.5053 34.5908C51.9258 34.5908 51.352 34.705 50.8167 34.9267C50.2814 35.1485 49.7949 35.4735 49.3852 35.8833C48.9755 36.2931 48.6505 36.7795 48.4288 37.3149C48.2072 37.8503 48.0925 38.4241 48.0926 39.0035Z" fill="#E6EDF3"/>
</svg>
