<svg width="128" height="128" viewBox="0 0 128 128" fill="none" xmlns="http://www.w3.org/2000/svg">
<path d="M63.9998 10.6667C54.0984 10.6667 44.6025 14.6001 37.6012 21.6014C30.5998 28.6028 26.6665 38.0987 26.6665 48.0001C26.6665 60.6934 33.0132 71.8401 42.6665 78.6134V90.6668C42.6665 92.0812 43.2284 93.4378 44.2286 94.438C45.2288 95.4382 46.5853 96.0001 47.9998 96.0001H79.9998C81.4143 96.0001 82.7709 95.4382 83.7711 94.438C84.7713 93.4378 85.3332 92.0812 85.3332 90.6668V78.6134C94.9865 71.8401 101.333 60.6934 101.333 48.0001C101.333 38.0987 97.3998 28.6028 90.3985 21.6014C83.3971 14.6001 73.9013 10.6667 63.9998 10.6667ZM47.9998 112C47.9998 113.415 48.5617 114.771 49.5619 115.771C50.5621 116.772 51.9187 117.333 53.3332 117.333H74.6665C76.081 117.333 77.4375 116.772 78.4377 115.771C79.4379 114.771 79.9998 113.415 79.9998 112V106.667H47.9998V112Z" fill="#E6EDF3"/>
</svg>
