<svg width="128" height="128" viewBox="0 0 128 128" fill="none" xmlns="http://www.w3.org/2000/svg">
<path d="M4 4V124H124V4H4ZM69.304 97.592C69.304 109.272 62.456 114.584 52.464 114.584C43.448 114.584 38.212 109.912 35.552 104.28L44.736 98.72C46.508 101.824 48.12 104.48 51.984 104.48C55.688 104.48 58.024 103.068 58.024 97.4V59.08H69.304V97.592ZM95.968 114.584C85.496 114.584 78.728 109.592 75.428 103.064L84.608 97.756C87.024 101.668 90.168 104.596 95.728 104.596C100.396 104.596 103.34 102.26 103.34 99.012C103.34 95.148 100.276 93.772 95.124 91.552L92.324 90.312C84.188 86.852 78.792 82.5 78.792 73.312C78.792 64.86 85.208 58.412 95.304 58.412C102.472 58.412 107.624 60.912 111.336 67.428L102.576 73.048C100.656 69.608 98.552 68.208 95.328 68.208C92.032 68.208 89.92 70.296 89.92 73.048C89.92 76.456 92 77.8 96.84 79.888L99.652 81.128C109.24 85.208 114.64 89.408 114.64 98.848C114.668 109.024 106.696 114.568 95.98 114.568L95.968 114.584Z" fill="#E6EDF3"/>
</svg>
