<svg width="75" height="75" viewBox="0 0 75 75" fill="none" xmlns="http://www.w3.org/2000/svg">
<path d="M43.5937 42.1875H42.875C42.3125 42.5312 42.0625 43.1875 42.3125 43.75L45 50.3438C47.5937 48.6875 49.5625 46.2187 50.5938 43.3125L43.625 42.1875H43.5937ZM32.8125 43.0937C32.7321 42.8387 32.5749 42.6147 32.3623 42.4525C32.1498 42.2902 31.8922 42.1977 31.625 42.1875H31.375L24.4375 43.3437C25.4688 46.2187 27.4375 48.6562 30.0312 50.3125L32.6875 43.8437V43.75C32.8125 43.5937 32.8125 43.3125 32.8125 43.0937ZM38.5312 45.625C38.3796 45.354 38.1279 45.1532 37.83 45.0655C37.5321 44.9779 37.2117 45.0105 36.9375 45.1562C36.7187 45.3125 36.5625 45.4062 36.4687 45.625H36.4375L33.0312 51.7812C35.4687 52.5937 38.0937 52.75 40.625 52.1562C41.0625 52.0625 41.5313 51.9375 41.9688 51.7812L38.5625 45.625H38.5312ZM49.3125 31.3437L44.0625 35.9375L44.0937 36.0312C43.9747 36.1304 43.8767 36.2524 43.8057 36.3901C43.7347 36.5278 43.6922 36.6784 43.6805 36.8329C43.6688 36.9874 43.6883 37.1427 43.7379 37.2895C43.7874 37.4363 43.8659 37.5716 43.9687 37.6875C44.125 37.875 44.3125 38 44.5312 38.0625L44.5625 38.0937L51.3438 40.0312C51.5625 37 50.9062 33.9375 49.3125 31.3437ZM39.5937 31.8437C39.625 32.5 40.1563 33 40.8125 32.9687C41.0625 32.9687 41.2813 32.9062 41.4688 32.8125H41.5L47.2187 28.7187C45.0396 26.5805 42.2174 25.2188 39.1875 24.8437L39.5937 31.8437ZM33.5312 32.8125C34.0625 33.1562 34.7812 33.0625 35.1562 32.5312C35.3125 32.3437 35.375 32.125 35.4062 31.875H35.4375L35.8125 24.8437C35.3437 24.9062 34.875 25 34.375 25.0937C31.875 25.6562 29.5625 26.9062 27.75 28.7187L33.5 32.8125H33.5312ZM30.4375 38.0937C31.0625 37.9375 31.4375 37.2812 31.25 36.6562C31.25 36.4062 31.0938 36.2187 30.9063 36.0625V36.0312L25.6562 31.25C24.0312 33.9375 23.3437 37 23.6875 40.0625L30.4375 38.125V38.0937ZM35.5625 40.1562L37.5 41.0937L39.4375 40.1562L39.9063 38.0625L38.5625 36.4062H36.4062L35.0625 38.0625L35.5625 40.1562ZM69.5938 44.2812L64.0625 20.3125C63.7813 19 62.9063 17.9375 61.75 17.375L39.3438 6.65625C38.1875 6.125 36.8125 6.125 35.625 6.65625L13.25 17.375C12.0937 17.9375 11.2188 19 10.9375 20.3125L5.40625 44.2812C5.25 44.9062 5.25 45.5312 5.40625 46.125C5.4375 46.3125 5.5 46.5 5.5625 46.6875C5.65625 46.9687 5.8125 47.2812 5.96875 47.5312C6.0625 47.6562 6.125 47.7812 6.25 47.875L21.7187 67.1875C21.7812 67.1875 21.875 67.3125 21.875 67.375C22.1875 67.6562 22.4688 67.875 22.75 68.0625C23.125 68.3125 23.5625 68.5 24 68.5938C24.3437 68.75 24.7187 68.75 25 68.75H50.375C50.5938 68.75 50.8125 68.6563 51 68.5938C51.1562 68.5625 51.3125 68.5 51.4375 68.4687C51.5625 68.4062 51.6562 68.375 51.7812 68.3125C51.9375 68.25 52.0937 68.1563 52.25 68.0625C52.625 67.8125 52.9687 67.5 53.2812 67.1875L53.75 66.5625L68.75 47.875C69.0625 47.5 69.2813 47.0937 69.4375 46.6875C69.5 46.5 69.5625 46.3125 69.5938 46.125C69.75 45.5312 69.75 44.875 69.5938 44.2812ZM46.375 53.625C46.4375 53.8125 46.5 54 46.5937 54.1562C46.4687 54.4062 46.4063 54.6875 46.5 54.9687C46.875 55.7187 47.2188 56.4062 47.6875 57.0937C47.9375 57.4375 48.1875 57.8125 48.4375 58.1563C48.4375 58.25 48.5312 58.4062 48.5625 58.5312C48.9375 59.1562 48.75 59.9687 48.0938 60.375C47.4375 60.7812 46.625 60.5312 46.25 59.9062C46.2188 59.8125 46.1875 59.75 46.1563 59.6562C46.0938 59.5625 46.0312 59.375 45.9687 59.375C45.8125 58.9062 45.6875 58.5 45.5938 58.0937C45.3125 57.3125 45.0625 56.5625 44.6562 55.8438C44.4937 55.6274 44.2622 55.4731 44 55.4062L43.75 54.9062C39.7187 56.4062 35.3125 56.4062 31.3437 54.875L31.0313 55.4375C30.8125 55.4687 30.5937 55.5625 30.4375 55.7187C30 56.4687 29.6875 57.25 29.4062 58.125C29.3125 58.5312 29.1875 58.9375 29.0312 59.375C28.9687 59.375 28.9062 59.5937 28.8437 59.6875C28.7236 60.0232 28.475 60.2973 28.1527 60.4497C27.8303 60.6021 27.4607 60.6202 27.125 60.5C26.7893 60.3798 26.5152 60.1312 26.3628 59.8089C26.2104 59.4866 26.1923 59.1169 26.3125 58.7812C26.3437 58.6875 26.4062 58.625 26.4375 58.5312C26.5625 58.4375 26.5625 58.2813 26.5625 58.1875C26.8437 57.8125 27.0625 57.4687 27.3125 57.0937C27.8125 56.4375 28.2187 55.6875 28.5312 54.9375C28.562 54.6733 28.5299 54.4056 28.4375 54.1562L28.6562 53.5937C24.9943 51.4212 22.25 47.9881 20.9375 43.9375L20.3125 44.0312C20.1086 43.864 19.857 43.7656 19.5937 43.75C18.75 43.9062 18 44.1562 17.1875 44.4375C16.8437 44.625 16.4375 44.7812 16.0312 44.9062C15.9375 44.9375 15.8125 44.9687 15.625 45C15.2892 45.1011 14.9274 45.0701 14.6137 44.9132C14.3 44.7564 14.0581 44.4856 13.9375 44.1562C13.7187 43.4375 14.0625 42.6875 14.8125 42.4375C14.875 42.4375 14.9688 42.4062 15.0625 42.4062V42.375H15.0937L15.4375 42.3125C15.875 42.1875 16.3125 42.1875 16.7187 42.1875C17.5312 42.1875 18.3437 42 19.125 41.8125C19.375 41.6562 19.5625 41.4687 19.7187 41.2187L20.3125 41.0625C19.6562 36.8125 20.625 32.5313 23 28.9688L22.5625 28.5937C22.5625 28.3125 22.4687 28.0312 22.3125 27.8125C21.6875 27.2812 21.0312 26.8125 20.3125 26.4062C19.9375 26.2187 19.5625 26 19.1875 25.75C19.125 25.6875 19 25.5938 18.9375 25.5313L18.9063 25.5C18.2813 25 18.125 24.1875 18.5625 23.5313C18.8437 23.2188 19.2187 23.0625 19.6562 23.0625C20 23.0938 20.3125 23.2187 20.5938 23.4375L20.875 23.6563C21.1875 23.9375 21.4687 24.2812 21.75 24.5937C22.3125 25.1875 22.9062 25.75 23.5625 26.2188C23.8125 26.3438 24.0938 26.375 24.375 26.3125L24.8437 26.6562C27.1875 24.1562 30.25 22.4062 33.5937 21.6562C34.375 21.4687 35.2187 21.3437 36.0312 21.2812L36.0625 20.7188C36.2783 20.5294 36.4309 20.2786 36.5 20C36.5313 19.1875 36.4687 18.375 36.3438 17.5938C36.25 17.1875 36.1875 16.75 36.1562 16.3125V15.9375C36.0937 15.1875 36.625 14.5312 37.375 14.4375C38.125 14.3437 38.75 14.9062 38.8438 15.625V16.3125C38.8125 16.75 38.75 17.1875 38.6562 17.5938C38.5312 18.375 38.4687 19.1875 38.5 20C38.5625 20.3125 38.7187 20.5312 38.9375 20.6875L38.9688 21.2812C43.2188 21.6562 47.1563 23.5625 50.0938 26.6562L50.5938 26.2812C50.875 26.3437 51.1563 26.3125 51.4063 26.1875C52.0625 25.7188 52.6875 25.1563 53.2188 24.5625C53.5 24.25 53.7812 23.9375 54.0937 23.625C54.1875 23.5625 54.3125 23.4375 54.4062 23.4375C54.9375 22.875 55.7813 22.875 56.25 23.4375C56.8438 23.9375 56.8125 24.7813 56.25 25.3125C56.25 25.375 56.1563 25.4375 56.0625 25.5C55.6359 25.8388 55.1751 26.1321 54.6875 26.375C53.9687 26.7812 53.2813 27.25 52.6875 27.7813C52.5 28 52.4063 28.25 52.4375 28.5313L51.9375 28.9688C54.3367 32.5015 55.3184 36.8077 54.6875 41.0312L55.2813 41.1875C55.4063 41.4375 55.625 41.625 55.875 41.75C56.6562 41.9687 57.4688 42.0937 58.2813 42.1875H59.5625C59.6563 42.2812 59.8125 42.3125 59.9375 42.3437C60.6875 42.4375 61.1875 43.125 61.0938 43.875C60.9375 44.5937 60.3438 45.125 59.5938 45.0312C59.5 45 59.375 45 59.375 44.9687V44.9375C59.1875 44.9375 59.0625 44.9062 58.9375 44.875C58.5313 44.75 58.1563 44.5937 57.8125 44.4062C57 44.0937 56.25 43.875 55.4063 43.75C55.125 43.75 54.875 43.75 54.6875 44C54.4687 43.9687 54.2812 43.9375 54.0937 43.9062C52.8125 48 50 51.4375 46.375 53.625Z" fill="#E6EDF3"/>
</svg>
