<svg width="128" height="128" viewBox="0 0 128 128" fill="none" xmlns="http://www.w3.org/2000/svg">
<path fill-rule="evenodd" clip-rule="evenodd" d="M26.6666 5.33325C21.0086 5.33325 15.5824 7.58086 11.5816 11.5816C7.58086 15.5824 5.33325 21.0086 5.33325 26.6666V101.333C5.33325 106.991 7.58086 112.417 11.5816 116.418C15.5824 120.419 21.0086 122.667 26.6666 122.667H101.333C106.991 122.667 112.417 120.419 116.418 116.418C120.419 112.417 122.667 106.991 122.667 101.333V26.6666C122.667 21.0086 120.419 15.5824 116.418 11.5816C112.417 7.58086 106.991 5.33325 101.333 5.33325H26.6666ZM42.6346 21.0186C42.1705 20.7883 41.6594 20.6685 41.1413 20.6685C40.6231 20.6685 40.112 20.7883 39.6479 21.0186L24.4213 28.6399C23.869 28.9188 23.4045 29.3447 23.0789 29.8708C22.7533 30.3969 22.5792 31.0026 22.5759 31.6213V86.8586C22.5759 88.0639 23.2266 89.1733 24.2773 89.7599L54.7519 106.907C55.7653 107.477 57.0079 107.477 58.0213 106.907L88.4959 89.7599C89.0094 89.4684 89.4371 89.0468 89.7357 88.5375C90.0344 88.0281 90.1936 87.449 90.1973 86.8586V69.8666L103.589 63.1679C104.142 62.8886 104.607 62.4619 104.933 61.9348C105.259 61.4077 105.432 60.8008 105.435 60.1813V41.1413C105.432 40.5217 105.259 39.9148 104.933 39.3877C104.607 38.8607 104.142 38.4339 103.589 38.1546L88.3519 30.5386C87.8885 30.3092 87.3784 30.1898 86.8613 30.1898C86.3442 30.1898 85.834 30.3092 85.3706 30.5386L70.1333 38.1599C69.5812 38.4399 69.1172 38.867 68.7925 39.3941C68.4679 39.9211 68.2951 40.5276 68.2933 41.1466V58.2399L59.7173 63.0613V31.6266C59.7154 31.0076 59.5427 30.4011 59.218 29.8741C58.8933 29.347 58.4293 28.9199 57.8773 28.6399L42.6346 21.0186ZM74.9546 58.1279L83.5253 62.4159V50.8213L74.9546 46.5386V58.1279ZM90.1919 62.4159V50.8213L98.7626 46.5386V58.1279L90.1919 62.4159ZM86.8586 45.0346L94.6453 41.1413L86.8586 37.2479L79.0719 41.1413L86.8586 45.0346ZM48.2453 77.1573L71.7119 63.9626L79.7493 67.9839L56.2879 81.1786L48.2453 77.1573ZM39.6533 80.3146L53.0453 87.0133V98.2986L29.2373 84.9119V37.0133L37.8079 41.2959V77.3333C37.8079 78.5973 38.5226 79.7493 39.6533 80.3146ZM59.7119 86.9013V98.2986L83.5253 84.9119V73.5093L59.7119 86.9013ZM41.1413 35.5093L33.3546 31.6159L41.1413 27.7226L48.9279 31.6159L41.1413 35.5093ZM44.4746 41.2959L53.0453 37.0133V66.8106L44.4746 71.6319V41.2959Z" fill="#E6EDF3"/>
</svg>
