<svg width="128" height="128" viewBox="0 0 128 128" fill="none" xmlns="http://www.w3.org/2000/svg">
<path fill-rule="evenodd" clip-rule="evenodd" d="M113.823 104.595C112.028 103.117 110.194 101.674 108.515 100.07C106.645 98.2849 105.47 96.1259 105.726 93.3919C105.873 91.8189 105.51 90.4659 103.613 89.9399C104.059 88.7859 104.477 88.0119 104.646 87.1869C104.834 86.2669 104.824 85.2999 104.85 84.3529C105.114 74.3929 101.516 65.6619 96.1869 57.5179C93.7329 53.7699 91.1699 50.0889 88.5539 46.4519C84.4619 40.7639 82.9949 34.3739 82.9209 27.4709C82.8787 24.2844 82.5165 21.1101 81.8399 17.9959C80.5269 11.9559 77.2909 7.23293 71.4219 4.69993C66.9249 2.75793 62.2699 2.37293 57.5209 3.61593C50.6199 5.42093 46.4469 10.5499 46.5249 17.7039C46.5989 24.5889 46.9419 31.4829 47.4469 38.3519C47.7349 42.2449 47.1349 45.6039 44.5519 48.6919C42.0679 51.6609 39.8459 54.8639 37.6939 58.0889C36.4649 59.9329 35.3769 61.9419 34.6169 64.0199C32.5469 69.6829 30.6439 75.3929 27.3409 80.5199C26.1169 82.4199 25.9779 84.5459 26.8469 86.7189C27.0719 87.2819 27.2099 88.1479 26.9359 88.6009C24.5819 92.5079 21.9249 95.9459 16.8699 96.6959C12.8939 97.2869 12.6979 98.0099 12.8189 102.109C12.9189 105.446 12.8799 108.814 12.5389 112.13C12.1759 115.685 12.5469 116.651 15.9809 117.503C23.9049 119.471 31.8939 121.15 39.4729 124.357C42.6999 125.722 45.9379 125.248 48.5369 122.594C51.2499 119.823 54.6779 118.739 58.3809 118.735C64.6659 118.73 70.9529 119.033 77.2409 119.104C78.9429 119.124 79.9199 119.757 80.6049 121.303C81.4449 123.196 82.8649 124.587 85.0499 124.829C89.2429 125.291 93.0629 124.669 96.2399 121.47C100.158 117.522 104.676 114.404 109.855 112.243C111.337 111.624 112.733 110.651 113.958 109.595C116.189 107.673 116.071 106.449 113.823 104.595ZM62.4259 24.1199C63.1839 21.5189 64.9629 19.8309 67.6689 19.3189C69.9449 18.8889 71.8719 20.0069 73.3079 22.5649C74.8539 25.3229 75.3619 28.2049 74.0419 31.2229C72.9589 33.6969 72.4509 33.9299 69.9189 33.0909C69.4449 32.9339 68.9819 32.7479 68.1419 32.4389C68.8499 31.8449 69.2959 31.4039 69.8059 31.0569C70.9399 30.2849 71.2579 29.1989 71.1519 27.9089C71.0129 26.2149 69.6809 24.7149 68.3149 24.7339C67.0899 24.7509 66.0529 25.9009 65.9149 27.6489C65.8289 28.7379 66.0099 29.8479 66.0879 31.2379C62.6419 30.2149 61.3769 27.7129 62.4259 24.1199ZM49.6759 21.8689C50.9499 19.9409 52.8729 19.5549 54.7769 20.8449C56.8059 22.2209 58.3239 26.1009 57.5399 28.4209C57.2549 29.2649 56.4129 29.9209 55.8239 30.6619L55.2199 30.2879C54.9899 29.0349 54.9439 27.7029 54.4629 26.5549C54.1589 25.8269 53.2059 25.3709 52.5439 24.7929C51.9219 25.5319 50.8509 26.2359 50.7869 27.0209C50.6989 28.1049 51.2639 29.3009 51.7559 30.3519C52.0669 31.0129 52.7569 31.4969 53.4689 32.2679L51.5469 33.7779C48.5289 31.0779 47.6319 24.9579 49.6759 21.8689ZM87.3399 86.0749C87.1369 88.6789 86.8399 88.7879 84.2219 89.1729C82.3629 89.4449 81.8629 89.9289 81.7689 92.1369C81.6667 94.7202 81.6627 97.3064 81.7569 99.8899C81.8179 101.66 81.2199 103.048 80.0019 104.283C73.2379 111.139 65.1569 114.388 55.4899 113.209C51.3199 112.7 48.5939 110.162 46.3929 106.57C47.3729 106.207 48.0979 105.963 48.8049 105.676C51.9269 104.406 52.5109 101.721 50.0179 99.3989C48.1339 97.6419 46.0319 96.1159 44.0109 94.5069C42.0569 92.9519 40.0769 91.4289 38.1199 89.8779C36.4519 88.5549 35.8149 86.8499 35.7749 84.6899C35.6809 79.5079 36.7469 74.6599 38.9129 69.9429C40.8449 65.7339 42.3419 61.3259 44.1519 57.0579C45.0869 54.8559 46.0579 52.6029 47.4299 50.6699C48.7489 48.8159 49.5639 47.0009 49.4179 44.7299C49.3339 43.4539 49.4019 42.1679 49.4019 40.8869L50.1089 40.5349C51.2499 41.5199 52.4109 42.4839 53.5319 43.4939C57.5769 47.1399 61.4239 47.3069 65.8509 44.1639C67.7389 42.8229 69.7809 41.6939 71.7779 40.5119C72.2749 40.2179 72.8699 40.0889 73.7119 39.7739C75.8629 44.8399 77.9739 49.8069 80.0869 54.7739C81.1589 57.2979 82.0189 59.9409 83.3509 62.3209C86.0219 67.0959 87.4429 72.1339 87.4209 77.5929C87.4089 80.4229 87.5579 83.2629 87.3399 86.0749Z" fill="#E6EDF3"/>
</svg>
