<svg width="128" height="128" viewBox="0 0 128 128" fill="none" xmlns="http://www.w3.org/2000/svg">
<g clip-path="url(#clip0_134_43)">
<path d="M35.5557 18.4888H99.5557V23.9999H35.5557V18.4888Z" fill="#E6EDF3"/>
<path d="M103.111 28.4444H35.0578C34.1504 28.4316 33.2551 28.2351 32.4257 27.8668C31.5963 27.4985 30.8501 26.966 30.2322 26.3015C29.6142 25.637 29.1372 24.8542 28.8299 24.0003C28.5227 23.1465 28.3915 22.2392 28.4445 21.3333C28.44 19.5305 29.1205 17.7933 30.3483 16.4731C31.576 15.1529 33.2594 14.3484 35.0578 14.2222H103.111C104.054 14.2222 104.958 13.8476 105.625 13.1808C106.292 12.514 106.667 11.6096 106.667 10.6666C106.667 9.72365 106.292 8.81928 105.625 8.15248C104.958 7.48569 104.054 7.11108 103.111 7.11108H35.0578C31.3728 7.24014 27.8819 8.79533 25.3214 11.4487C22.761 14.102 21.3311 17.646 21.3333 21.3333C21.2977 21.9135 21.2977 22.4953 21.3333 23.0755C21.2991 23.3589 21.2991 23.6454 21.3333 23.9289V106.667C21.3311 110.354 22.761 113.898 25.3214 116.551C27.8819 119.205 31.3728 120.76 35.0578 120.889H103.111C104.054 120.889 104.958 120.514 105.625 119.847C106.292 119.181 106.667 118.276 106.667 117.333V32.2489C106.669 31.2815 106.302 30.3497 105.642 29.643C104.981 28.9363 104.076 28.5077 103.111 28.4444Z" fill="#E6EDF3"/>
</g>
<defs>
<clipPath id="clip0_134_43">
<rect width="128" height="128" fill="white"/>
</clipPath>
</defs>
</svg>
