<svg width="128" height="128" viewBox="0 0 128 128" fill="none" xmlns="http://www.w3.org/2000/svg">
<path d="M85.3332 79.9999L101.333 63.9999L95.7332 58.2666L89.3332 64.6666V47.9999H81.3332V64.6666L74.9332 58.2666L69.3332 63.9999L85.3332 79.9999ZM21.3332 106.667C18.3998 106.667 15.8896 105.623 13.8025 103.536C11.7154 101.449 10.6701 98.9368 10.6665 95.9999V31.9999C10.6665 29.0666 11.7118 26.5564 13.8025 24.4693C15.8932 22.3821 18.4034 21.3368 21.3332 21.3333H106.667C109.6 21.3333 112.112 22.3786 114.203 24.4693C116.293 26.5599 117.337 29.0701 117.333 31.9999V95.9999C117.333 98.9333 116.29 101.445 114.203 103.536C112.115 105.627 109.603 106.67 106.667 106.667H21.3332ZM29.3332 79.9999H37.3332V55.9999H42.6665V71.9999H50.6665V55.9999H55.9998V79.9999H63.9998V53.3333C63.9998 51.8221 63.4878 50.5564 62.4638 49.5359C61.4398 48.5155 60.1741 48.0035 58.6665 47.9999H34.6665C33.1554 47.9999 31.8896 48.5119 30.8692 49.5359C29.8487 50.5599 29.3367 51.8257 29.3332 53.3333V79.9999Z" fill="#E6EDF3"/>
</svg>
