<svg width="128" height="128" viewBox="0 0 128 128" fill="none" xmlns="http://www.w3.org/2000/svg">
<g clip-path="url(#clip0_134_126)">
<path d="M0 115.2H64V113.536C73.728 116.096 84.288 115.776 94.464 112C120.96 102.272 134.592 72.8318 124.864 46.3358C115.712 21.4398 89.152 7.9358 64 14.4638V12.7998H0V115.2ZM57.6 19.1998V108.8H6.4V19.1998H57.6ZM92.48 71.8078C90.3976 75.9554 86.7592 79.1109 82.3588 80.5857C77.9584 82.0605 73.1532 81.7349 68.992 79.6798C67.008 78.7198 65.344 77.4398 64 75.9038V52.0318C69.12 46.5278 77.504 44.7998 84.608 48.3198C93.248 52.6718 96.768 63.1678 92.48 71.8078ZM74.88 66.5598C76.288 67.5838 78.272 67.3278 79.36 65.9198C80.384 64.5118 80.128 62.5278 78.72 61.4398C77.312 60.3518 75.328 60.6718 74.24 62.0798C73.216 63.4238 73.472 65.4718 74.88 66.5598ZM94.144 90.0478C86.656 95.0398 77.76 96.3838 69.632 94.4638C67.904 94.0798 66.816 92.2878 67.264 90.5598C67.712 88.8318 69.44 87.8078 71.232 88.2558L72.32 88.5118C78.464 89.5998 84.992 88.4478 90.624 84.7358C93.632 82.6878 96.128 80.1278 97.92 77.1838C98.88 75.7118 100.8 75.2638 102.336 76.1598C103.808 77.1198 104.256 79.1038 103.36 80.5758C101.056 84.2238 97.984 87.4878 94.144 90.0478ZM100.864 100.096C91.7694 106.196 80.6998 108.62 69.888 106.88C69.472 106.796 69.0766 106.631 68.7244 106.394C68.3722 106.157 68.0701 105.853 67.8353 105.499C67.6006 105.146 67.4378 104.749 67.3562 104.333C67.2747 103.916 67.276 103.488 67.36 103.072C67.444 102.656 67.6092 102.26 67.8461 101.908C68.0829 101.556 68.3868 101.254 68.7404 101.019C69.094 100.784 69.4904 100.622 69.9069 100.54C70.3235 100.458 70.752 100.46 71.168 100.544L72.576 100.8C80.96 101.76 89.728 99.9038 97.344 94.7838C101.888 91.7758 105.472 87.9358 108.224 83.6478C109.12 82.1118 111.104 81.6638 112.576 82.6238C114.112 83.5198 114.56 85.5038 113.6 87.0398C110.464 92.0958 106.176 96.5758 100.864 100.096Z" fill="#E6EDF3"/>
</g>
<defs>
<clipPath id="clip0_134_126">
<rect width="128" height="128" fill="white"/>
</clipPath>
</defs>
</svg>
