<svg width="128" height="128" viewBox="0 0 128 128" fill="none" xmlns="http://www.w3.org/2000/svg">
<path d="M87.4933 29.3387C86.88 29.3387 86.464 29.4134 86.032 29.5147V29.584H86.1067C86.3947 30.1387 86.8853 30.544 87.248 31.04C87.536 31.6107 87.7813 32.1814 88.0693 32.7467L88.144 32.6667C88.6453 32.3147 88.8907 31.7494 88.8907 30.8907C88.6773 30.64 88.6453 30.3894 88.464 30.144C88.2507 29.7867 87.792 29.6107 87.504 29.328L87.4933 29.3387ZM30.7733 99.7067H25.8293C25.6893 91.8496 25.2089 84.0022 24.3893 76.1867H24.3467L16.8267 99.7067H13.0667L5.6 76.1867H5.54667C4.96298 84.0144 4.61616 91.858 4.50667 99.7067H0C0.295111 89.2178 1.024 79.3867 2.18667 70.2134H8.32L15.44 91.888H15.4827L22.6667 70.2134H28.5067C29.7973 80.9654 30.5582 90.7965 30.7893 99.7067H30.7733ZM52.1973 77.9467C50.1813 88.8587 47.5289 96.7876 44.24 101.733C41.6693 105.552 38.8551 107.46 35.7973 107.456C34.9867 107.456 33.9804 107.211 32.7787 106.72V104.085C33.3689 104.178 34.0551 104.224 34.8373 104.224C36.2667 104.224 37.4169 103.829 38.288 103.04C39.3369 102.08 39.8613 101.004 39.8613 99.8134C39.8613 98.9849 39.4524 97.3067 38.6347 94.7787L33.2267 77.9467H38.08L41.9573 90.5334C42.8356 93.392 43.2 95.3885 43.0507 96.5227C45.184 90.8409 46.6684 84.6489 47.504 77.9467H52.1973ZM117.931 99.7067H103.904V70.2134H108.624V96.08H117.931V99.7067ZM100.224 100.427L94.8053 97.76C95.2889 97.3583 95.7422 96.9138 96.1653 96.4267C98.4729 93.7245 99.6249 89.7191 99.6213 84.4107C99.6213 74.6507 95.7902 69.7689 88.128 69.7654C84.3733 69.7654 81.44 71.0045 79.328 73.4827C77.0311 76.192 75.8827 80.1831 75.8827 85.456C75.8791 90.6436 76.8996 94.448 78.944 96.8694C80.8071 99.056 83.6213 100.149 87.3867 100.149C88.7947 100.149 90.0836 99.9751 91.2533 99.6267L98.32 103.744L100.24 100.427H100.224ZM82.6667 93.8027C81.4684 91.8791 80.8693 88.7929 80.8693 84.544C80.8693 77.1129 83.1271 73.3974 87.6427 73.3974C90.0107 73.3974 91.7476 74.2863 92.8533 76.064C94.048 77.9947 94.6453 81.0578 94.6453 85.2534C94.6453 92.7449 92.3876 96.4925 87.872 96.496C85.5004 96.496 83.7618 95.6071 82.656 93.8294L82.6667 93.8027ZM73.824 91.536C73.824 94.0463 72.9067 96.1014 71.072 97.7014C69.2444 99.3014 66.784 100.101 63.6907 100.101C60.7947 100.101 58.016 99.184 55.3013 97.3547L56.5653 94.816C58.8978 95.9858 61.0133 96.5689 62.912 96.5654C64.6827 96.5654 66.0747 96.1743 67.088 95.392C67.5958 95.0114 68.0057 94.5155 68.2839 93.9451C68.5621 93.3748 68.7006 92.7465 68.688 92.112C68.688 90.352 67.4613 88.8587 65.232 87.6054C63.1627 86.4694 59.0293 84.1014 59.0293 84.1014C56.7787 82.464 55.6587 80.7094 55.6587 77.824C55.6587 75.4276 56.4942 73.4987 58.1653 72.0374C59.84 70.5583 62.0089 69.8205 64.672 69.824C67.4062 69.824 69.8951 70.5529 72.1387 72.0107L71.0027 74.5494C69.214 73.7594 67.2832 73.3421 65.328 73.3227C63.8169 73.3227 62.6542 73.6889 61.84 74.4214C61.43 74.7634 61.0993 75.1905 60.8709 75.6731C60.6425 76.1556 60.5219 76.6821 60.5173 77.216C60.5173 78.9654 61.7653 80.4694 64.0693 81.7494C66.1653 82.896 70.4 85.3227 70.4 85.3227C72.7093 86.9494 73.856 88.6827 73.856 91.552L73.824 91.536ZM123.861 60.3254C121.008 60.2507 118.795 60.5387 116.944 61.328C116.411 61.5414 115.557 61.5414 115.483 62.2187C115.776 62.5014 115.819 62.9654 116.069 63.36C116.496 64.0747 117.232 65.0294 117.915 65.5307C118.654 66.1245 119.413 66.6756 120.192 67.184C121.579 68.0374 123.152 68.544 124.512 69.4027C125.285 69.904 126.075 70.5387 126.859 71.072C127.248 71.3387 127.499 71.8187 128 71.9894V71.8827C127.755 71.5627 127.68 71.0987 127.44 70.7414C127.083 70.384 126.725 70.064 126.373 69.712C125.328 68.3309 124.078 67.117 122.667 66.112C121.525 65.3334 119.029 64.2454 118.56 62.9387L118.491 62.864C119.269 62.7947 120.197 62.512 120.944 62.2987C122.155 61.9787 123.264 62.048 124.517 61.7334C125.086 61.584 125.655 61.4169 126.224 61.232V60.912C125.584 60.272 125.104 59.4027 124.443 58.8054C122.595 57.194 120.627 55.7266 118.555 54.416C117.435 53.7014 116.016 53.2427 114.837 52.6347C114.411 52.4214 113.696 52.3147 113.451 51.9574C112.811 51.1787 112.437 50.144 111.984 49.216C110.938 47.1839 109.965 45.115 109.067 43.0134C108.427 41.616 108.037 40.224 107.253 38.944C103.573 32.88 99.5893 29.2054 93.4613 25.6107C92.144 24.864 90.5653 24.544 88.896 24.1494C88.0053 24.1067 87.1147 24.0427 86.2293 24.0054C85.6427 23.7547 85.0773 23.0774 84.576 22.752C82.5493 21.472 77.3013 18.6987 75.808 22.368C74.848 24.6827 77.232 26.9654 78.0587 28.1387C78.672 28.9547 79.4453 29.888 79.872 30.8054C80.1227 31.424 80.192 32.0587 80.4427 32.704C81.008 34.272 81.5467 36.0214 82.2933 37.488C82.6827 38.2347 83.1093 39.0187 83.6107 39.6907C83.8987 40.08 84.3893 40.2614 84.5013 40.9014C84 41.6267 83.968 42.6827 83.68 43.568C82.4 47.6054 82.9013 52.5974 84.7147 55.568C85.2853 56.4534 86.6453 58.416 88.464 57.664C90.064 57.024 89.712 54.9974 90.1707 53.2107C90.2773 52.784 90.208 52.5014 90.4267 52.2134V52.2934C90.928 53.296 91.4293 54.2507 91.888 55.2534C92.9867 57.0027 94.9067 58.816 96.512 60.0267C97.3653 60.6667 98.0427 61.776 99.1093 62.1707V62.064H99.0293C98.8 61.7547 98.496 61.6054 98.208 61.3547C97.5326 60.6919 96.9086 59.9788 96.3413 59.2214C94.8433 57.165 93.5111 54.9929 92.3573 52.7254C91.7707 51.6054 91.28 50.4 90.8107 49.296C90.5973 48.8694 90.5973 48.2294 90.24 48.016C89.7067 48.7947 88.9227 49.472 88.5333 50.432C87.856 51.968 87.7867 53.856 87.5307 55.8187C87.3867 55.856 87.456 55.8187 87.3867 55.8934C86.2453 55.616 85.856 54.432 85.4293 53.44C84.3627 50.9067 84.1867 46.8374 85.1093 43.92C85.36 43.1734 86.4267 40.816 86 40.1014C85.776 39.424 85.072 39.0347 84.6827 38.4854C84.1825 37.77 83.7538 37.0072 83.4027 36.208C82.5493 34.2134 82.1227 32.0054 81.1947 30.0107C80.768 29.088 80.0213 28.1227 79.4133 27.2747C78.736 26.3147 77.9893 25.6374 77.4507 24.5014C77.2747 24.112 77.024 23.4667 77.3067 23.04C77.3813 22.752 77.5307 22.64 77.808 22.56C78.2773 22.176 79.5947 22.6774 80.0587 22.8907C81.376 23.424 82.4853 23.9254 83.5893 24.672C84.0907 25.024 84.6293 25.7014 85.2693 25.8774H86.016C87.1573 26.128 88.4427 25.952 89.5093 26.2667C91.4027 26.8747 93.1093 27.76 94.64 28.72C99.357 31.7323 103.193 35.9385 105.76 40.912C106.187 41.7334 106.373 42.4854 106.763 43.3387C107.509 45.0987 108.432 46.8747 109.189 48.576C109.936 50.256 110.656 51.968 111.728 53.36C112.261 54.1067 114.405 54.496 115.365 54.8854C116.075 55.2054 117.179 55.4987 117.819 55.888C119.045 56.6347 120.24 57.488 121.392 58.3094C121.979 58.7147 123.755 59.6054 123.861 60.3254Z" fill="#E6EDF3"/>
</svg>
