<svg width="75" height="75" viewBox="0 0 75 75" fill="none" xmlns="http://www.w3.org/2000/svg">
<path fill-rule="evenodd" clip-rule="evenodd" d="M37.5 65.625C53.0312 65.625 65.625 53.0406 65.625 37.5187C65.6656 21.9562 53.0312 9.375 37.5 9.375C21.9688 9.375 9.375 21.9594 9.375 37.4813C9.375 53.0031 21.9688 65.625 37.5 65.625ZM26.6156 25.5312L37.1437 36.05V26.0875C37.1437 26.0062 37.1437 25.8875 37.1812 25.8094C37.2219 25.7225 37.2757 25.6424 37.3406 25.5719C37.4219 25.4906 37.5 25.4531 37.5781 25.4125C37.6562 25.3719 37.7781 25.3719 37.8594 25.3719H49.775C49.8531 25.3719 49.9719 25.4125 50.0531 25.4125C50.1313 25.4531 50.2094 25.4906 50.2906 25.5688C50.3719 25.6469 50.4094 25.7312 50.45 25.8094C50.4845 25.8978 50.4984 25.9929 50.4906 26.0875V49.7469C50.4906 49.8656 50.4906 49.9437 50.45 50.025C50.4103 50.1116 50.3576 50.1917 50.2938 50.2625C50.222 50.3266 50.1409 50.3793 50.0531 50.4188C49.975 50.4625 49.8531 50.4625 49.7719 50.4625C49.6562 50.4625 49.575 50.4625 49.4594 50.4219C49.3781 50.3813 49.2594 50.3406 49.2188 50.2625L38.6906 39.7438V49.7438C38.6906 49.825 38.6906 49.9437 38.6531 50.025C38.6125 50.1119 38.5587 50.1919 38.4937 50.2625C38.423 50.3264 38.3429 50.379 38.2562 50.4188C38.175 50.4625 38.0563 50.4625 37.975 50.4625H26.0625C25.9844 50.4625 25.8625 50.4219 25.7844 50.4219C25.6975 50.3812 25.6174 50.3275 25.5469 50.2625C25.4819 50.1919 25.4282 50.1119 25.3875 50.025C25.3469 49.9437 25.3469 49.825 25.3469 49.7438V37.9156C25.3469 37.8375 25.3469 37.7969 25.3875 37.7188V26.0875C25.3907 25.9341 25.4315 25.7839 25.5062 25.65C25.5861 25.5161 25.7132 25.4169 25.8625 25.3719C25.9844 25.3344 26.1438 25.2938 26.3 25.3344C26.4155 25.3836 26.5199 25.45 26.6156 25.5312Z" fill="#E6EDF3"/>
</svg>
