<svg width="128" height="128" viewBox="0 0 128 128" fill="none" xmlns="http://www.w3.org/2000/svg">
<path d="M112 85.3335H90.6668C87.7213 85.3335 85.3335 87.7213 85.3335 90.6668V112C85.3335 114.946 87.7213 117.333 90.6668 117.333H112C114.946 117.333 117.333 114.946 117.333 112V90.6668C117.333 87.7213 114.946 85.3335 112 85.3335Z" stroke="#E6EDF3" stroke-width="10.6667" stroke-linecap="round" stroke-linejoin="round"/>
<path d="M37.3334 85.3335H16.0001C13.0546 85.3335 10.6667 87.7213 10.6667 90.6668V112C10.6667 114.946 13.0546 117.333 16.0001 117.333H37.3334C40.2789 117.333 42.6667 114.946 42.6667 112V90.6668C42.6667 87.7213 40.2789 85.3335 37.3334 85.3335Z" stroke="#E6EDF3" stroke-width="10.6667" stroke-linecap="round" stroke-linejoin="round"/>
<path d="M74.6667 10.6667H53.3333C50.3878 10.6667 48 13.0546 48 16.0001V37.3334C48 40.2789 50.3878 42.6667 53.3333 42.6667H74.6667C77.6122 42.6667 80 40.2789 80 37.3334V16.0001C80 13.0546 77.6122 10.6667 74.6667 10.6667Z" stroke="#E6EDF3" stroke-width="10.6667" stroke-linecap="round" stroke-linejoin="round"/>
<path d="M26.6667 85.3334V69.3334C26.6667 67.9189 27.2287 66.5624 28.2288 65.5622C29.229 64.562 30.5856 64.0001 32.0001 64.0001H96.0001C97.4146 64.0001 98.7711 64.562 99.7713 65.5622C100.772 66.5624 101.333 67.9189 101.333 69.3334V85.3334M64.0001 64.0001V42.6667" stroke="#E6EDF3" stroke-width="10.6667" stroke-linecap="round" stroke-linejoin="round"/>
</svg>
