<svg width="75" height="75" viewBox="0 0 75 75" fill="none" xmlns="http://www.w3.org/2000/svg">
<path d="M37.5 0L5.01562 18.75V56.25L37.5 75L69.9844 56.25V18.75L37.5 0ZM56.25 51.8438C56.25 54.0539 54.2344 55.8727 51.4781 55.8727C49.5 55.8727 47.2523 55.0781 45.8508 53.3438L27.1008 31.0312V51.8438C27.1008 54.0914 25.3195 55.8727 23.1094 55.8727H22.875C21.8086 55.8659 20.7877 55.4393 20.0336 54.6851C19.2795 53.931 18.8529 52.9102 18.8461 51.8438V23.1562C18.8461 20.9461 20.8125 19.1273 23.5336 19.1273C25.5492 19.1273 27.8437 19.9219 29.2453 21.6562L47.8992 43.9688V23.1562C47.8992 20.8992 49.7812 19.1273 51.9398 19.1273H52.1719C53.2383 19.1341 54.2592 19.5607 55.0133 20.3149C55.7674 21.069 56.194 22.0898 56.2008 23.1562V51.8438H56.25Z" fill="#E6EDF3"/>
</svg>
