<svg width="404" height="404" viewBox="0 0 404 404" fill="none" xmlns="http://www.w3.org/2000/svg">
<path d="M0.857178 69.4285C0.857178 51.2423 8.08165 33.8009 20.9413 20.9412C33.8009 8.08159 51.2423 0.857117 69.4286 0.857117H334.571C352.758 0.857117 370.199 8.08159 383.059 20.9412C395.918 33.8009 403.143 51.2423 403.143 69.4285V220.286H288.857C270.671 220.286 253.229 227.51 240.37 240.37C227.51 253.229 220.286 270.671 220.286 288.857V403.143H69.4286C51.2423 403.143 33.8009 395.918 20.9413 383.059C8.08165 370.199 0.857178 352.758 0.857178 334.571V69.4285ZM247.714 403.143H248.811L403.143 248.811V247.714H288.857C277.945 247.714 267.481 252.049 259.765 259.765C252.049 267.481 247.714 277.945 247.714 288.857V403.143Z" fill="#E6EDF3"/>
</svg>
