<svg width="75" height="75" viewBox="0 0 75 75" fill="none" xmlns="http://www.w3.org/2000/svg">
<g clip-path="url(#clip0_153_21)">
<path d="M13.9346 13.15C16.2658 15.0437 17.1408 14.9 21.5221 14.6062L62.8189 12.1281C63.6939 12.1281 62.9658 11.2531 62.6752 11.1093L55.8127 6.14996C54.5002 5.13121 52.7471 3.96246 49.3908 4.25308L9.40645 7.17183C7.9502 7.31558 7.65644 8.04683 8.23769 8.62808L13.9346 13.15ZM16.4127 22.775V66.225C16.4127 68.5593 17.5783 69.4343 20.2064 69.2875L65.5908 66.6625C68.2189 66.5187 68.5127 64.9125 68.5127 63.0156V19.8562C68.5127 17.9625 67.7846 16.9406 66.1752 17.0843L18.7471 19.8562C16.9971 20.0031 16.4127 20.8812 16.4127 22.775ZM61.2158 25.1031C61.5064 26.4156 61.2158 27.7281 59.9033 27.8781L57.7158 28.3156V60.3906C55.8158 61.4125 54.0658 61.9968 52.6064 61.9968C50.2689 61.9968 49.6846 61.2656 47.9346 59.0812L33.6314 36.625V58.35L38.1564 59.375C38.1564 59.375 38.1564 62 34.5064 62L24.4377 62.5812C24.1471 62 24.4377 60.5406 25.4596 60.25L28.0846 59.5218V30.7937L24.4439 30.5C24.1502 29.1875 24.8814 27.2937 26.9221 27.1468L37.7221 26.4187L52.6096 49.1656V29.0406L48.8127 28.6062C48.5221 27 49.6877 25.8343 51.1471 25.6906L61.2158 25.1031ZM6.0502 3.23433L47.6439 0.171832C52.7502 -0.265668 54.0658 0.0249572 57.2752 2.35933L70.5533 11.6906C72.7408 13.2937 73.4721 13.7312 73.4721 15.4812V66.6625C73.4721 69.8687 72.3064 71.7687 68.2221 72.0562L19.9158 74.975C16.8533 75.1218 15.3908 74.6843 13.7846 72.6406L4.00645 59.9531C2.25645 57.6187 1.52832 55.8718 1.52832 53.8281V8.33433C1.52832 5.71246 2.69707 3.52183 6.0502 3.23433Z" fill="#E6EDF3"/>
</g>
<defs>
<clipPath id="clip0_153_21">
<rect width="75" height="75" fill="white"/>
</clipPath>
</defs>
</svg>
