<svg width="75" height="75" viewBox="0 0 75 75" fill="none" xmlns="http://www.w3.org/2000/svg">
<path d="M60.4843 57.9313C62.4973 54.9036 64.4333 51.8256 66.2906 48.7C66.5408 48.2648 66.656 47.7651 66.6215 47.2643C66.587 46.7635 66.4043 46.2843 66.0968 45.8875C64.4843 43.7469 61.3968 39.4031 59.7156 35.3813C57.9874 31.2531 57.7281 24.8344 57.7156 21.7031C57.72 20.5151 57.3261 19.3598 56.5968 18.4219L46.6031 5.72188C46.5628 6.29227 46.4834 6.85923 46.3656 7.41875C46.0343 8.99063 45.4062 10.5563 44.6906 12.1063C44.2718 13.0125 43.7843 13.9813 43.2968 14.9625L42.3281 16.9188C40.7156 20.2563 39.2124 23.8781 38.7906 28.1375C38.4031 32.075 38.9343 36.6688 41.3374 42.1406C41.7374 42.174 42.1395 42.2198 42.5437 42.2781C46.3934 42.7964 50.0069 44.4315 52.9374 46.9813C55.7999 49.45 58.3874 52.9875 60.4843 57.9188V57.9313ZM25.6218 70.5281C25.851 70.5677 26.0801 70.5886 26.3093 70.5906C28.7468 70.6656 32.8562 70.8781 36.1843 71.4969C38.9031 71.9969 44.2874 73.4969 48.7156 74.7938C52.0999 75.7813 55.5843 73.0813 56.0749 69.5938C56.4312 67.05 57.1062 64.1719 58.3406 61.5313L58.3093 61.5469C56.2156 55.7031 53.5531 51.9281 50.7593 49.5188C48.3128 47.3873 45.2941 46.0214 42.0781 45.5906C37.2656 44.9156 32.8531 46.1844 30.0781 46.9969C31.7406 53.9281 31.2281 62.0875 25.6249 70.5313L25.6218 70.5281ZM17.2906 31.0563C17.2176 31.3688 17.1156 31.6708 16.9843 31.9625L8.81243 50.1844C8.40137 51.099 8.27484 52.1162 8.44927 53.1037C8.6237 54.0912 9.09102 55.0034 9.79055 55.7219L22.6531 68.9719C29.2249 59.2813 28.2656 50.1594 25.2656 43.0344C22.9906 37.6281 19.5406 33.4063 17.2968 31.0625L17.2906 31.0563ZM29.1249 43.7813C31.0468 43.2094 34.1437 42.3281 37.7031 42.1125C35.5687 36.7219 35.0531 32.0094 35.4656 27.8094C35.9468 22.9594 37.6531 18.9125 39.3249 15.4656C39.6791 14.7365 40.0208 14.0448 40.3499 13.3906C40.8156 12.4625 41.2499 11.5875 41.6593 10.7031C42.3374 9.23438 42.8437 7.9375 43.0968 6.73438C43.3468 5.54688 43.3468 4.48438 43.0531 3.475C42.7562 2.45938 42.1249 1.36563 40.9281 0.162502C40.1267 -0.0463728 39.286 -0.0529238 38.4814 0.143438C37.6769 0.339799 36.9337 0.732924 36.3187 1.2875L20.8499 15.2C19.9865 15.9756 19.4197 17.0273 19.2468 18.175L17.9124 27.0188C20.0124 28.8625 25.1874 34.2563 28.3343 41.7406C28.6176 42.401 28.8812 43.0813 29.1249 43.7813Z" fill="#E6EDF3"/>
</svg>
