<svg width="128" height="128" viewBox="0 0 128 128" fill="none" xmlns="http://www.w3.org/2000/svg">
<path fill-rule="evenodd" clip-rule="evenodd" d="M40.9067 29.3333C43.2472 25.2796 46.6134 21.9133 50.6671 19.5728C54.7209 17.2323 59.3192 16.0001 64.0001 16C68.6809 16.0001 73.2793 17.2323 77.333 19.5728C81.3867 21.9133 84.753 25.2796 87.0934 29.3333L91.7334 37.3333H36.2668L40.9067 29.3333ZM18.9494 32.5653C20.2141 31.9338 21.6778 31.8301 23.0188 32.2771C24.3599 32.7241 25.4686 33.6853 26.1014 34.9493C26.8854 36.512 28.7681 38.544 31.2907 40.2293C33.8827 41.9573 36.1654 42.6667 37.3334 42.6667H90.6667C91.8347 42.6667 94.1174 41.9573 96.7094 40.2293C99.2374 38.544 101.115 36.512 101.899 34.9493C102.198 34.3009 102.625 33.7193 103.154 33.2389C103.682 32.7585 104.302 32.3893 104.976 32.1529C105.65 31.9166 106.365 31.8181 107.077 31.8632C107.79 31.9084 108.487 32.0962 109.126 32.4156C109.764 32.7351 110.333 33.1796 110.796 33.7227C111.26 34.2659 111.61 34.8967 111.826 35.5778C112.041 36.2588 112.117 36.9761 112.05 37.6872C111.983 38.3983 111.774 39.0887 111.435 39.7173C109.552 43.488 106.101 46.7893 102.624 49.104C101.003 50.1905 99.2767 51.1124 97.4721 51.856C99.0521 55.757 100.155 59.8345 100.757 64H112C113.415 64 114.771 64.5619 115.771 65.5621C116.772 66.5623 117.333 67.9188 117.333 69.3333C117.333 70.7478 116.772 72.1044 115.771 73.1046C114.771 74.1048 113.415 74.6667 112 74.6667H101.269C100.979 80.7636 99.644 86.7654 97.3227 92.4107C100.373 94.1707 102.459 96.9973 103.771 99.6107C105.631 103.479 106.619 107.708 106.667 112C106.667 113.414 106.105 114.771 105.105 115.771C104.104 116.771 102.748 117.333 101.333 117.333C99.9189 117.333 98.5624 116.771 97.5622 115.771C96.562 114.771 96.0001 113.414 96.0001 112C96.0001 110.005 95.4614 106.848 94.2294 104.384C93.5361 102.997 92.8428 102.203 92.1761 101.771C86.5441 109.696 78.6348 115.317 69.3334 116.891V69.3333C69.3334 67.9188 68.7715 66.5623 67.7713 65.5621C66.7711 64.5619 65.4146 64 64.0001 64C62.5856 64 61.229 64.5619 60.2288 65.5621C59.2287 66.5623 58.6667 67.9188 58.6667 69.3333V116.891C49.3654 115.317 41.4561 109.691 35.8241 101.776C35.1521 102.203 34.4641 103.003 33.7707 104.389C32.6502 106.773 32.0468 109.367 32.0001 112C32.0001 113.414 31.4382 114.771 30.438 115.771C29.4378 116.771 28.0812 117.333 26.6667 117.333C25.2523 117.333 23.8957 116.771 22.8955 115.771C21.8953 114.771 21.3334 113.414 21.3334 112C21.3815 107.71 22.37 103.483 24.2294 99.616C25.5414 96.992 27.6267 94.176 30.6774 92.416C28.3556 86.7691 27.0206 80.7654 26.7307 74.6667H16.0001C14.5856 74.6667 13.229 74.1048 12.2288 73.1046C11.2287 72.1044 10.6667 70.7478 10.6667 69.3333C10.6667 67.9188 11.2287 66.5623 12.2288 65.5621C13.229 64.5619 14.5856 64 16.0001 64H27.2427C27.8449 59.8345 28.948 55.757 30.5281 51.856C28.7235 51.1124 26.9976 50.1905 25.3761 49.104C21.9041 46.7893 18.4427 43.488 16.5654 39.7173C15.9338 38.4527 15.8302 36.989 16.2772 35.6479C16.7242 34.3069 17.6853 33.1981 18.9494 32.5653Z" fill="#E6EDF3"/>
</svg>
