<svg width="128" height="128" viewBox="0 0 128 128" fill="none" xmlns="http://www.w3.org/2000/svg">
<path d="M64 29.3333C28.112 29.3333 0 44.5599 0 63.9999C0 83.4399 28.112 98.6666 64 98.6666C99.888 98.6666 128 83.4399 128 63.9999C128 44.5599 99.888 29.3333 64 29.3333ZM57.3547 39.9999H64.3413L62.1227 50.6666H68.3627C72.32 50.6666 74.976 51.2213 76.4907 52.6026C77.968 53.9679 78.416 56.2079 77.824 59.2586L75.0507 71.9999H67.9467L70.5013 60.2186C70.8071 58.5937 70.688 57.4826 70.144 56.8853C69.6053 56.2933 68.416 55.9999 66.6347 55.9999H61.04L57.664 71.9999H50.6667L57.3547 39.9999ZM26.6667 50.6666H40.8853C47.664 50.6666 51.7707 55.2106 50.1653 61.9893C48.2987 69.8666 43.3067 71.9999 34.112 71.9999H29.7173L28.3253 79.9999H21.2587L26.6667 50.6666ZM82.6667 50.6666H96.8853C103.664 50.6666 107.771 55.2106 106.165 61.9893C104.299 69.8666 99.3013 71.9999 90.112 71.9999H85.7173L84.3253 79.9999H77.2587L82.6667 50.6666ZM32.72 55.9999L30.7093 66.6666H35.2693C39.216 66.6666 42.8853 66.2186 43.4987 60.3359C43.728 58.0533 42.7787 55.9999 38.2187 55.9999H32.72ZM88.72 55.9999L86.7093 66.6666H91.2693C95.216 66.6666 98.8853 66.2186 99.4987 60.3359C99.728 58.0533 98.784 55.9999 94.2187 55.9999H88.72Z" fill="#E6EDF3"/>
</svg>
