<svg width="75" height="75" viewBox="0 0 75 75" fill="none" xmlns="http://www.w3.org/2000/svg">
<path d="M62.2312 18.4C51.6875 4.7437 32.0625 2.2187 18.4 12.7687C4.7437 23.3125 2.2187 42.9375 12.7687 56.5999C23.3156 70.2562 42.9406 72.7812 56.5999 62.2312L56.6062 62.225C70.2593 51.675 72.7781 32.0562 62.2312 18.4ZM54.2343 26.1968L51.7968 23.7968L51.2687 23.2718L51.4156 23.125L55.1156 19.6312C55.7781 20.4343 56.1406 21.4437 56.1406 22.4906C56.1375 23.7093 55.65 24.8812 54.7843 25.7437C54.6114 25.9104 54.4281 26.0614 54.2343 26.1968ZM20.9312 52.3062L21.3656 52.7125L23.6312 54.9781L18.5875 54.65L20.9312 52.3062ZM51.5312 17.9062C52.5468 17.9125 53.5343 18.25 54.3437 18.8687L50.2812 22.9562C50.2209 23.0047 50.1745 23.0683 50.1468 23.1406L50.1437 23.1562L50.1375 23.175C50.1147 23.2531 50.1159 23.3363 50.141 23.4138C50.166 23.4912 50.2138 23.5594 50.2781 23.6093L53.3531 26.6812C52.5121 27.0469 51.5804 27.1506 50.6796 26.9789C49.7788 26.8072 48.9506 26.3681 48.3031 25.7187C47.6675 25.0771 47.2352 24.2624 47.0601 23.3764C46.885 22.4905 46.975 21.5726 47.3187 20.7375C47.6616 19.9014 48.245 19.186 48.9949 18.682C49.7449 18.178 50.6276 17.9079 51.5312 17.9062ZM48.6906 28.1125C48.6849 28.3111 48.6381 28.5064 48.5531 28.6861C48.4681 28.8657 48.3468 29.0258 48.1968 29.1562L36.025 39.7468L35.9843 39.7812L35.5406 39.3375L35.3468 39.1437L35.2531 39.05L34.9812 38.7781L34.8781 38.675L34.6687 38.4656L46.1906 27.0468C46.4255 26.8071 46.7369 26.657 47.0708 26.6228C47.4047 26.5886 47.74 26.6722 48.0187 26.8593C48.1016 26.9143 48.179 26.9771 48.25 27.0468L48.3656 27.1656C48.4656 27.3156 48.552 27.4718 48.625 27.6343C48.6729 27.7906 48.6947 27.95 48.6906 28.1125ZM34.6343 39.8L34.6562 39.8593L34.7625 39.9625L35.2187 40.4093L35.05 40.4312L32.5218 40.7406L32.8343 40.4281L34.0562 39.2093L34.6343 39.8ZM46.9156 25.7406C46.3945 25.8093 45.9109 26.0489 45.5406 26.4218L34.0562 37.8531L31.8062 35.6031C37.7593 29.6718 41.4 26.5781 43.6656 25.5625C44.1589 25.2516 44.7367 25.1017 45.319 25.1336C45.9012 25.1655 46.4592 25.3776 46.9156 25.7406ZM31.1406 36.2656L31.1875 36.3125L33.0468 38.1718L28.1968 39.2093L31.1406 36.2656ZM24.7875 51.4468C24.6356 51.518 24.5134 51.6401 24.442 51.7919C24.3707 51.9437 24.3547 52.1157 24.3968 52.2781L24.9156 54.5437C24.9351 54.5705 24.9457 54.6027 24.9457 54.6359C24.9457 54.669 24.9351 54.7013 24.9156 54.7281C24.8871 54.7531 24.8504 54.7669 24.8125 54.7669C24.7745 54.7669 24.7378 54.7531 24.7093 54.7281L21.6343 51.6281L31.1031 42.0187L36.0062 41.2593L37.8062 43.0593C33.8218 46.3713 29.4503 49.1877 24.7875 51.4468ZM38.6656 42.3843L36.7656 40.4843L48.7312 29.9906C47.8812 33.3656 43.3687 37.9406 38.6656 42.3843ZM55.15 21.9156C55.1009 21.833 55.023 21.7714 54.9314 21.7426C54.8397 21.7137 54.7406 21.7197 54.6531 21.7593C54.6103 21.7814 54.5724 21.8118 54.5414 21.8485C54.5104 21.8853 54.487 21.9279 54.4725 21.9738C54.458 22.0196 54.4526 22.0679 54.4568 22.1159C54.461 22.1638 54.4746 22.2104 54.4968 22.2531C54.5866 22.4415 54.6221 22.6513 54.5995 22.8588C54.5769 23.0663 54.497 23.2634 54.3687 23.4281C54.3354 23.4596 54.3095 23.4981 54.2928 23.5407C54.276 23.5834 54.2689 23.6292 54.2718 23.675C54.2718 23.7708 54.3031 23.8531 54.3656 23.9218C54.4333 23.9459 54.5072 23.9459 54.575 23.9218C54.6357 23.9374 54.6996 23.936 54.7597 23.9178C54.8197 23.8996 54.8736 23.8653 54.9156 23.8187C55.1321 23.5569 55.2692 23.2386 55.3107 22.9014C55.3522 22.5642 55.2965 22.2221 55.15 21.9156Z" fill="#E6EDF3"/>
</svg>
