<svg width="128" height="128" viewBox="0 0 128 128" fill="none" xmlns="http://www.w3.org/2000/svg">
<path d="M63.9998 10.6667H21.3332C18.5042 10.6667 15.7911 11.7906 13.7907 13.7909C11.7903 15.7913 10.6665 18.5044 10.6665 21.3334V53.3334C10.6665 56.1624 11.7903 58.8755 13.7907 60.8759C15.7911 62.8763 18.5042 64.0001 21.3332 64.0001H26.2932C28.0488 63.9998 29.7774 64.4329 31.3255 65.2609C32.8736 66.089 34.1935 67.2863 35.1678 68.7468L38.2292 73.3441C38.7162 74.0745 39.3761 74.6734 40.1501 75.0877C40.9242 75.5019 41.7886 75.7186 42.6665 75.7186C43.5444 75.7186 44.4088 75.5019 45.1829 75.0877C45.9569 74.6734 46.6168 74.0745 47.1038 73.3441L50.1652 68.7521C51.1389 67.2907 52.4585 66.0923 54.0067 65.2633C55.5548 64.4343 57.2837 64.0004 59.0398 64.0001H63.9998C66.8288 64.0001 69.5419 62.8763 71.5423 60.8759C73.5427 58.8755 74.6665 56.1624 74.6665 53.3334V21.3334C74.6665 18.5044 73.5427 15.7913 71.5423 13.7909C69.5419 11.7906 66.8288 10.6667 63.9998 10.6667Z" fill="#E6EDF3" stroke="#E6EDF3" stroke-width="10.6667" stroke-linecap="round" stroke-linejoin="round"/>
<path d="M95.9997 53.3335H106.666C109.495 53.3335 112.208 54.4573 114.209 56.4577C116.209 58.4581 117.333 61.1712 117.333 64.0002V96.0002C117.333 98.8291 116.209 101.542 114.209 103.543C112.208 105.543 109.495 106.667 106.666 106.667H101.706C99.9507 106.667 98.2221 107.1 96.674 107.928C95.1259 108.756 93.8061 109.953 92.8317 111.413L89.7703 116.011C89.2833 116.741 88.6234 117.34 87.8494 117.754C87.0753 118.169 86.2109 118.385 85.333 118.385C84.4551 118.385 83.5907 118.169 82.8166 117.754C82.0426 117.34 81.3827 116.741 80.8957 116.011L77.8343 111.419C76.8606 109.957 75.541 108.759 73.9929 107.93C72.4447 107.101 70.7158 106.667 68.9597 106.667H63.9997C61.1707 106.667 58.4576 105.543 56.4572 103.543C54.4568 101.542 53.333 98.8291 53.333 96.0002V90.6668" stroke="#E6EDF3" stroke-width="10.6667" stroke-linecap="round" stroke-linejoin="round"/>
</svg>
