<svg width="75" height="75" viewBox="0 0 75 75" fill="none" xmlns="http://www.w3.org/2000/svg">
<g clip-path="url(#clip0_95_35)">
<path d="M0.353125 32.0938C0.176536 33.348 0.0586987 34.6098 0 35.875H56.9688C56.7575 35.4919 56.5117 35.129 56.2344 34.7906C46.4938 22.2063 41.2563 23.3 33.7656 22.9781C31.2656 22.8719 29.5781 22.8281 19.6281 22.8281C14.3031 22.8281 8.51875 22.8438 2.88437 22.8594C2.15313 24.8281 1.45 26.7344 1.1125 28.2875H30.3062V32.0875H0.353125V32.0938ZM57.4156 39.675H0.028125C0.0885417 40.6917 0.186458 41.6927 0.321875 42.6781H53.3063C55.6625 42.6781 56.9906 41.3344 57.4156 39.675ZM3.29687 53.05C3.29687 53.05 12.0781 74.6188 37.4531 75C52.625 75 65.6625 65.9906 71.5781 53.05H3.3H3.29687ZM37.4625 0C23.4375 0 11.2281 7.70625 4.78438 19.0875L19.6281 19.0719V19.0656C31.2219 19.0656 31.6562 19.1156 33.9188 19.2125L35.3187 19.2625C40.2031 19.425 46.2094 19.95 50.9313 23.525C53.4938 25.4656 57.2031 29.7437 59.4062 32.7906C61.45 35.6094 62.0375 38.8531 60.6437 41.9594C59.3688 44.8156 56.6156 46.5156 53.2906 46.5156H1.22187C1.22187 46.5156 1.53125 47.8281 2 49.2844H73.0875C74.3486 45.4886 74.9942 41.5154 75 37.5156C75 16.8031 58.1906 0 37.4625 0Z" fill="#E6EDF3"/>
</g>
<defs>
<clipPath id="clip0_95_35">
<rect width="75" height="75" fill="white"/>
</clipPath>
</defs>
</svg>
