<svg width="75" height="75" viewBox="0 0 75 75" fill="none" xmlns="http://www.w3.org/2000/svg">
<g clip-path="url(#clip0_153_17)">
<path d="M57.0719 0.0218398C47.3188 -0.437535 39.1219 6.61247 37.7219 15.9031C37.6657 16.3343 37.5813 16.7531 37.5125 17.1687C35.3375 28.7406 25.2125 37.5031 13.0532 37.5031C8.87408 37.5115 4.76125 36.4588 1.10005 34.4437C1.00346 34.3887 0.894054 34.3601 0.782888 34.3609C0.671722 34.3617 0.562743 34.3919 0.466972 34.4483C0.3712 34.5048 0.292035 34.5855 0.237482 34.6824C0.182929 34.7793 0.154923 34.8888 0.156298 35V75H37.5V46.8781C37.5 41.7031 41.6813 37.5031 46.8344 37.5031H56.1719C66.7407 37.5031 75.2438 28.7 74.8282 17.9906C74.4532 8.35309 66.6719 0.481215 57.0719 0.0218398Z" fill="#E6EDF3"/>
</g>
<defs>
<clipPath id="clip0_153_17">
<rect width="75" height="75" fill="white"/>
</clipPath>
</defs>
</svg>
