<svg width="128" height="128" viewBox="0 0 128 128" fill="none" xmlns="http://www.w3.org/2000/svg">
<path d="M96.0001 74.6667H56.0001L66.6667 64.0001H96.0001M32.0001 74.6667V61.3334L68.6934 24.7467C69.7068 23.7334 71.4134 23.7334 72.4801 24.7467L81.8668 34.1867C82.9334 35.2534 82.9334 36.9067 81.8668 37.9734L45.1734 74.6667M106.667 10.6667H21.3334C18.5044 10.6667 15.7913 11.7906 13.7909 13.7909C11.7906 15.7913 10.6667 18.5044 10.6667 21.3334V117.333L32.0001 96.0001H106.667C109.496 96.0001 112.209 94.8763 114.209 92.8759C116.21 90.8755 117.333 88.1624 117.333 85.3334V21.3334C117.333 18.5044 116.21 15.7913 114.209 13.7909C112.209 11.7906 109.496 10.6667 106.667 10.6667Z" fill="#E6EDF3"/>
</svg>
