<svg width="128" height="128" viewBox="0 0 128 128" fill="none" xmlns="http://www.w3.org/2000/svg">
<path d="M41.2 57.2C41.9501 56.4501 42.9673 56.0288 44.028 56.0288C45.0886 56.0288 46.1058 56.4501 46.856 57.2L62.856 73.2C63.6058 73.9501 64.0271 74.9673 64.0271 76.028C64.0271 77.0886 63.6058 78.1058 62.856 78.856L46.856 94.856C46.1015 95.5846 45.0911 95.9878 44.0424 95.9787C42.9936 95.9695 41.9903 95.5489 41.2487 94.8072C40.507 94.0656 40.0864 93.0623 40.0773 92.0136C40.0681 90.9648 40.4713 89.9544 41.2 89.2L54.4 76L41.2 62.8C40.4501 62.0498 40.0288 61.0326 40.0288 59.972C40.0288 58.9113 40.4501 57.8941 41.2 57.144V57.2ZM88 92C88 90.9391 87.5785 89.9217 86.8284 89.1715C86.0782 88.4214 85.0608 88 84 88H68C66.9391 88 65.9217 88.4214 65.1715 89.1715C64.4214 89.9217 64 90.9391 64 92C64 93.0608 64.4214 94.0782 65.1715 94.8284C65.9217 95.5785 66.9391 96 68 96H84C85.0608 96 86.0782 95.5785 86.8284 94.8284C87.5785 94.0782 88 93.0608 88 92Z" fill="#E6EDF3"/>
<path fill-rule="evenodd" clip-rule="evenodd" d="M32 8.00001C23.2 8.00001 16 15.16 16 24V104C16 112.8 23.16 120 32 120H96C104.8 120 112 112.84 112 104V44C112.001 43.4744 111.898 42.9537 111.698 42.4678C111.497 41.9818 111.203 41.5402 110.832 41.168L78.832 9.16801C78.4598 8.79679 78.0182 8.50257 77.5322 8.30215C77.0463 8.10174 76.5256 7.99907 76 8.00001H32ZM24 24C24 21.8783 24.8429 19.8434 26.3431 18.3432C27.8434 16.8429 29.8783 16 32 16H72V44C72 45.0609 72.4214 46.0783 73.1716 46.8284C73.9217 47.5786 74.9391 48 76 48H104V104C104 106.122 103.157 108.157 101.657 109.657C100.157 111.157 98.1217 112 96 112H32C29.8783 112 27.8434 111.157 26.3431 109.657C24.8429 108.157 24 106.122 24 104V24ZM98.32 40L80 21.68V40H98.32Z" fill="#E6EDF3"/>
</svg>
