<svg width="75" height="75" viewBox="0 0 75 75" fill="none" xmlns="http://www.w3.org/2000/svg">
<g clip-path="url(#clip0_95_63)">
<path d="M18.7076 5.04683C-6.23588 19.4272 -6.23588 55.573 18.7076 69.9532C43.6511 84.3334 75 66.2605 75 37.5C75 8.73956 43.6511 -9.3334 18.7076 5.04683ZM25.836 59.8466C7.9444 59.8466 22.9166 39.7295 10.488 40.0764V34.7001C22.2124 36.1548 8.23356 13.2823 25.7493 15.2767V19.4389C15.9798 19.6701 25.6914 32.1567 16.9046 37.3882C25.7493 43.1978 16.4422 56.4359 25.836 54.9908V59.8466ZM25.2082 40.3024C23.1896 39.1386 23.1896 36.2133 25.2082 35.0495C27.2269 33.8856 29.764 35.3483 29.764 37.6759C29.764 40.0036 27.2269 41.4662 25.2083 40.3024M35.9793 40.3024C33.9605 39.1386 33.9605 36.2133 35.9793 35.0495C37.9979 33.8856 40.535 35.3483 40.535 37.6759C40.535 40.0036 37.9979 41.4662 35.9793 40.3024ZM46.7502 40.3024C44.7315 39.1386 44.7315 36.2133 46.7502 35.0495C48.7687 33.8856 51.3058 35.3483 51.3058 37.6759C51.3058 40.0036 48.7687 41.4662 46.7502 40.3024ZM49.1641 59.8466V54.9907C58.5578 56.436 49.2508 43.198 58.0954 37.3882C49.3087 32.1565 59.0203 19.6701 49.2508 19.4389V15.2767C66.7667 13.2823 52.7877 36.1548 64.5121 34.7001V40.0764C52.0834 39.7295 67.0557 59.8466 49.1641 59.8466Z" fill="#E6EDF3"/>
</g>
<defs>
<clipPath id="clip0_95_63">
<rect width="75" height="75" fill="white"/>
</clipPath>
</defs>
</svg>
