<svg width="148" height="148" viewBox="0 0 148 148" fill="none" xmlns="http://www.w3.org/2000/svg">
<path d="M57.7632 13.875H90.2368C96.9708 13.875 102.311 13.875 106.609 14.2265C111.012 14.5842 114.731 15.3365 118.135 17.0632C123.646 19.8742 128.125 24.3578 130.931 29.8713C132.663 33.263 133.416 36.9877 133.773 41.3907C134.125 45.6888 134.125 51.0292 134.125 57.7632V90.2368C134.125 96.9708 134.125 102.311 133.773 106.609C133.416 111.012 132.663 114.731 130.937 118.135C128.127 123.645 123.646 128.124 118.135 130.931C114.731 132.663 111.012 133.416 106.609 133.773C102.311 134.125 96.9708 134.125 90.2368 134.125H57.7632C51.0292 134.125 45.6888 134.125 41.3907 133.773C36.9877 133.416 33.2692 132.663 29.8713 130.937C24.3592 128.128 19.8777 123.647 17.0693 118.135C15.3365 114.731 14.5842 111.012 14.2265 106.609C13.875 102.311 13.875 96.9708 13.875 90.2368V57.7632C13.875 51.0292 13.875 45.6888 14.2265 41.3907C14.5842 36.9877 15.3365 33.2692 17.0632 29.8713C19.8732 24.3582 24.3569 19.8767 29.8713 17.0693C33.263 15.3365 36.9877 14.5842 41.3907 14.2265C45.6888 13.875 51.0292 13.875 57.7632 13.875ZM52.6017 52.2317C51.7249 51.4147 50.5653 50.9699 49.3671 50.9911C48.1689 51.0122 47.0257 51.4976 46.1783 52.345C45.3309 53.1924 44.8456 54.3356 44.8244 55.5338C44.8033 56.732 45.248 57.8916 46.065 58.7683L61.2967 74L46.065 89.2317C45.6106 89.6551 45.2461 90.1657 44.9933 90.733C44.7406 91.3003 44.6046 91.9128 44.5937 92.5338C44.5827 93.1548 44.697 93.7716 44.9296 94.3475C45.1622 94.9234 45.5084 95.4465 45.9476 95.8857C46.3868 96.3249 46.9099 96.6711 47.4858 96.9038C48.0617 97.1364 48.6786 97.2506 49.2996 97.2396C49.9206 97.2287 50.533 97.0928 51.1003 96.84C51.6676 96.5872 52.1782 96.2227 52.6017 95.7683L71.1017 77.2683C71.9678 76.4011 72.4543 75.2256 72.4543 74C72.4543 72.7744 71.9678 71.5989 71.1017 70.7317L52.6017 52.2317ZM80.1667 87.875C78.94 87.875 77.7637 88.3623 76.8963 89.2296C76.0289 90.097 75.5417 91.2734 75.5417 92.5C75.5417 93.7266 76.0289 94.903 76.8963 95.7704C77.7637 96.6377 78.94 97.125 80.1667 97.125H98.6667C99.8933 97.125 101.07 96.6377 101.937 95.7704C102.804 94.903 103.292 93.7266 103.292 92.5C103.292 91.2734 102.804 90.097 101.937 89.2296C101.07 88.3623 99.8933 87.875 98.6667 87.875H80.1667Z" fill="#E6EDF3"/>
</svg>
