<svg width="128" height="128" viewBox="0 0 128 128" fill="none" xmlns="http://www.w3.org/2000/svg">
<path d="M19.92 35.0239L9.80799 34.6826L8.60799 38.5812C6.17606 46.4624 5.9403 54.8576 7.92609 62.8628C9.91188 70.868 14.044 78.1797 19.8773 84.0106C25.6877 89.8227 32.9687 93.946 40.9416 95.9395C48.9145 97.9329 57.2793 97.7215 65.1413 95.3279L93.3813 123.573L104.704 112.251L81.792 89.3386L89.3333 81.7972L112.245 104.709L123.552 93.4026L95.3067 65.1679C97.7013 57.3051 97.9133 48.9392 95.9198 40.9653C93.9263 32.9913 89.8024 25.7094 83.9893 19.8986C78.1585 14.0652 70.8467 9.93312 62.8416 7.94733C54.8364 5.96154 46.4411 6.1973 38.56 8.62923L34.6667 9.82923L35.0027 19.9412L53.8187 38.7572L38.736 53.8399L19.92 35.0239Z" fill="#E6EDF3"/>
</svg>
