<svg width="75" height="75" viewBox="0 0 75 75" fill="none" xmlns="http://www.w3.org/2000/svg">
<path d="M70.3125 52.5V17.4984L40.3594 0V13.4391L52.0922 20.3109C52.5562 20.625 52.5562 21.2484 52.0922 21.4078L38.1937 29.5313C37.7297 29.8453 37.2703 29.6859 36.9609 29.5313L23.0625 21.4078C22.5984 21.2484 22.5984 20.4703 23.0625 20.3109L34.8 13.4391V0L4.6875 17.4984V52.5L16.1156 45.7828V32.0297C16.1156 31.5609 16.7297 31.2516 17.0391 31.4062L30.9375 39.5297C31.4016 39.8437 31.5562 40.1578 31.5562 40.6266V56.8734C31.5562 57.3422 30.9375 57.6563 30.6281 57.5016L18.8953 50.625L7.46719 57.3422L37.4203 75L67.3781 57.5016L55.95 50.7797L44.2219 57.6563C43.7578 57.9703 43.2938 57.6562 43.2938 57.0328V40.7812C43.2938 40.3125 43.6031 39.8438 43.9125 39.6891L57.8109 31.5609C58.275 31.2516 58.7344 31.5609 58.7344 32.1891V45.9375L70.3125 52.5Z" fill="#E6EDF3"/>
</svg>
