<svg width="128" height="128" viewBox="0 0 128 128" fill="none" xmlns="http://www.w3.org/2000/svg">
<path d="M116 104C116 105.061 115.579 106.078 114.828 106.828C114.078 107.579 113.061 108 112 108H16C14.9391 108 13.9217 107.579 13.1716 106.828C12.4214 106.078 12 105.061 12 104C12 102.939 12.4214 101.922 13.1716 101.172C13.9217 100.421 14.9391 100 16 100H112C113.061 100 114.078 100.421 114.828 101.172C115.579 101.922 116 102.939 116 104ZM116 28V84C116 86.1217 115.157 88.1566 113.657 89.6569C112.157 91.1571 110.122 92 108 92H20C17.8783 92 15.8434 91.1571 14.3431 89.6569C12.8429 88.1566 12 86.1217 12 84V28C12 25.8783 12.8429 23.8434 14.3431 22.3431C15.8434 20.8429 17.8783 20 20 20H108C110.122 20 112.157 20.8429 113.657 22.3431C115.157 23.8434 116 25.8783 116 28ZM82 56C81.9998 55.3573 81.8448 54.7241 81.548 54.154C81.2512 53.5839 80.8214 53.0938 80.295 52.725L60.295 38.725C59.6957 38.3052 58.9927 38.0578 58.2625 38.0097C57.5324 37.9617 56.803 38.1149 56.1539 38.4526C55.5047 38.7903 54.9607 39.2997 54.5809 39.9251C54.2011 40.5506 54.0002 41.2683 54 42V70C54.0002 70.7317 54.2011 71.4494 54.5809 72.0749C54.9607 72.7003 55.5047 73.2097 56.1539 73.5474C56.803 73.8851 57.5324 74.0383 58.2625 73.9903C58.9927 73.9422 59.6957 73.6948 60.295 73.275L80.295 59.275C80.8214 58.9062 81.2512 58.4161 81.548 57.846C81.8448 57.2759 81.9998 56.6427 82 56Z" fill="#E6EDF3"/>
</svg>
