<svg width="128" height="128" viewBox="0 0 128 128" fill="none" xmlns="http://www.w3.org/2000/svg">
<g clip-path="url(#clip0_144_80)">
<path d="M94.024 8H83.336C82.3314 7.99947 81.3429 8.25116 80.4609 8.73199C79.5789 9.21281 78.8318 9.90738 78.288 10.752L64 32.976L49.712 10.752C49.1689 9.90852 48.423 9.21467 47.5426 8.7339C46.6621 8.25314 45.6751 8.00081 44.672 8H5.99997C4.94256 7.99945 3.90378 8.27835 2.98885 8.80846C2.07392 9.33857 1.31533 10.1011 0.789921 11.0187C0.264511 11.9363 -0.00905789 12.9765 -0.00307785 14.0339C0.00290219 15.0913 0.288219 16.1284 0.823974 17.04L58.824 115.856C59.3532 116.759 60.1094 117.507 61.0173 118.028C61.9253 118.548 62.9536 118.821 64 118.821C65.0464 118.821 66.0746 118.548 66.9826 118.028C67.8906 117.507 68.6467 116.759 69.176 115.856L127.176 17.04C127.712 16.1284 127.997 15.0913 128.003 14.0339C128.009 12.9765 127.735 11.9363 127.21 11.0187C126.685 10.1011 125.926 9.33857 125.011 8.80846C124.096 8.27835 123.057 7.99945 122 8H94.024ZM30.48 20L64 77.464L97.52 20H111.52L64 100.96L16.48 20H30.48Z" fill="#E6EDF3"/>
</g>
<defs>
<clipPath id="clip0_144_80">
<rect width="128" height="128" fill="white"/>
</clipPath>
</defs>
</svg>
