<svg width="128" height="128" viewBox="0 0 128 128" fill="none" xmlns="http://www.w3.org/2000/svg">
<path d="M44 64C44 69.0667 44.2267 73.9787 44.648 78.6667H83.352C83.7733 73.9787 84 69.0667 84 64C84 58.9333 83.7733 54.0213 83.3493 49.3333H44.6533C44.2267 54.0213 44 58.9333 44 64ZM36.6213 49.3333C36.204 54.211 35.9967 59.1045 36 64C36 69.0293 36.2133 73.9387 36.6187 78.6667H5.80533C4.62667 73.9733 4 69.0587 4 64C4 58.9413 4.62667 54.0267 5.80533 49.3333H36.6213ZM45.5973 41.3333H82.4C81.216 33.2613 79.424 26.064 77.2027 20.152C75.1253 14.624 72.752 10.424 70.3227 7.68267C67.888 4.93067 65.7387 4 64 4C62.2613 4 60.112 4.93333 57.6747 7.68C55.2453 10.4267 52.872 14.624 50.7947 20.152C48.5733 26.064 46.7813 33.2613 45.5947 41.3333M91.3787 49.3333C91.7867 54.0613 92 58.9707 92 64C92 69.0293 91.7867 73.9387 91.3813 78.6667H122.195C123.373 73.9733 124 69.0587 124 64C124 58.9413 123.373 54.0267 122.195 49.3333H91.3787ZM119.573 41.3333H90.4827C89.2293 32.2987 87.2453 24.1333 84.6933 17.3387C83.064 13.0027 81.1653 9.12 79.0027 5.89067C97.456 10.6427 112.469 23.952 119.568 41.3333M37.5147 41.3333H8.42933C15.5253 23.952 30.5413 10.6427 48.9947 5.89333C46.8347 9.12 44.9333 13.0027 43.304 17.3387C40.752 24.1333 38.7707 32.2987 37.5173 41.3333M37.5093 86.6667H8.42933C15.5227 104.04 30.5253 117.344 48.9627 122.101C46.8027 118.875 44.9093 114.992 43.2827 110.661C40.736 103.861 38.7573 95.7013 37.5093 86.6667ZM77.2267 107.851C79.44 101.939 81.2267 94.7413 82.4107 86.6667H45.5893C46.7707 94.7413 48.5573 101.939 50.7733 107.851C52.848 113.379 55.2187 117.576 57.6533 120.317C60.0853 123.064 62.24 124 64 124C65.76 124 67.9147 123.064 70.3467 120.317C72.7813 117.576 75.152 113.379 77.2267 107.851ZM84.7173 110.659C87.264 103.864 89.2427 95.6987 90.4907 86.6667H119.571C112.477 104.04 97.4747 117.344 79.0373 122.101C81.1973 118.875 83.0907 114.989 84.7173 110.659Z" fill="#E6EDF3"/>
</svg>
